<svg height='100px' width='100px'  fill="#f18f01" xmlns="http://www.w3.org/2000/svg" xmlns:xlink="http://www.w3.org/1999/xlink" version="1.1" x="0px" y="0px" viewBox="0 0 1024 1024" style="enable-background:new 0 0 1024 1024;" xml:space="preserve"><g><g><g><path d="M858.5,276.2c0,27.3,0,54.6,0,81.9c0,43.5,0,87.1,0,130.6c0,10,0,20,0,30c10-10,20-20,30-30     c-6.7,0-13.5,0-20.2,0c-18.2,0-36.4,0-54.6,0c-27.1,0-54.1,0-81.2,0c-32.9,0-65.7,0-98.6,0c-36.2,0-72.3,0-108.5,0     c-36.5,0-73,0-109.5,0c-33.9,0-67.8,0-101.6,0c-28.8,0-57.5,0-86.3,0c-20.7,0-41.4,0-62,0c-9.7,0-19.5-0.2-29.3,0     c-0.4,0-0.8,0-1.3,0c10,10,20,20,30,30c0-28.7,0-57.5,0-86.2c0-44,0-87.9,0-131.9c0-13.1-0.7-26.6,1-39.7c-0.4,2.7-0.7,5.3-1.1,8     c1.4-9.8,4-19.3,7.8-28.5c-1,2.4-2,4.8-3,7.2c2.8-6.5,6.1-12.7,10-18.6c1-1.5,2-2.9,3-4.3c2.9-4.1-5.3,6.6-0.7,0.9     c2.2-2.7,4.6-5.3,7-7.7c2.5-2.5,5-4.8,7.7-7c5.6-4.7-5,3.5-0.9,0.7c1.4-1,2.8-2,4.3-3c5.9-3.9,12.1-7.2,18.6-10     c-2.4,1-4.8,2-7.2,3c9.2-3.8,18.7-6.4,28.5-7.8c-2.7,0.4-5.3,0.7-8,1.1c8.9-1.1,17.7-1,26.6-1c12.3,0,24.7,0,37,0     c42.6,0,85.2,0,127.8,0c52.2,0,104.4,0,156.6,0c44.8,0,89.5,0,134.3,0c20.3,0,40.6-0.1,60.9,0c5.2,0,10.3,0.4,15.4,1     c-2.7-0.4-5.3-0.7-8-1.1c9.8,1.4,19.3,4,28.5,7.8c-2.4-1-4.8-2-7.2-3c6.5,2.8,12.7,6.1,18.6,10c1.5,1,2.9,2,4.3,3     c4.1,2.9-6.6-5.3-0.9-0.7c2.7,2.2,5.3,4.6,7.7,7c2.5,2.5,4.8,5,7,7.7c4.7,5.6-3.5-5-0.7-0.9c1,1.4,2,2.8,3,4.3     c3.9,5.9,7.2,12.1,10,18.6c-1-2.4-2-4.8-3-7.2c3.8,9.2,6.4,18.7,7.8,28.5c-0.4-2.7-0.7-5.3-1.1-8     C858.1,266,858.5,271.1,858.5,276.2c0.1,15.7,13.7,30.7,30,30c16.2-0.7,30.1-13.2,30-30c-0.2-37.9-15.5-75.1-42.7-101.6     c-26.6-26-62.7-40.6-99.8-40.8c-14.9-0.1-29.8,0-44.7,0c-36,0-72.1,0-108.1,0c-45.5,0-91.1,0-136.6,0c-43.3,0-86.6,0-129.9,0     c-29.8,0-59.5,0-89.3,0c-6.1,0-12.2,0-18.3,0c-26.3,0-52.8,6.9-75.3,20.8c-31.6,19.5-55.7,51.4-64.2,87.7     c-3.6,15.4-4.1,30.8-4.1,46.4c0,38.9,0,77.9,0,116.8c0,35.8,0,71.6,0,107.3c0,2,0,4,0,6c0,16.2,13.7,30,30,30     c6.7,0,13.5,0,20.2,0c18.2,0,36.4,0,54.6,0c27.1,0,54.1,0,81.2,0c32.9,0,65.7,0,98.6,0c36.2,0,72.3,0,108.5,0     c36.5,0,73,0,109.5,0c33.9,0,67.8,0,101.6,0c28.8,0,57.5,0,86.3,0c20.7,0,41.4,0,62,0c9.7,0,19.5,0.1,29.3,0c0.4,0,0.8,0,1.3,0     c16.2,0,30-13.7,30-30c0-27.3,0-54.6,0-81.9c0-43.5,0-87.1,0-130.6c0-10,0-20,0-30c0-15.7-13.8-30.7-30-30     C872.2,246.9,858.5,259.4,858.5,276.2z"></path></g></g><g><g><path d="M930.5,584.9c0,44.5,0,89.1,0,133.6c0,6.4,0,12.8,0,19.2c10-10,20-20,30-30c-8,0-16,0-24,0     c-21.8,0-43.6,0-65.3,0c-32.1,0-64.1,0-96.2,0c-39.4,0-78.9,0-118.3,0c-42.9,0-85.7,0-128.6,0c-43.4,0-86.9,0-130.3,0     c-40.5,0-81,0-121.5,0c-34.1,0-68.2,0-102.3,0c-24.6,0-49.3,0-73.9,0c-11.7,0-23.3-0.2-35,0c-0.5,0-1,0-1.5,0c10,10,20,20,30,30     c0-45.6,0-91.3,0-136.9c0-8-0.4-16.2,0.5-24.2c-0.4,2.7-0.7,5.3-1.1,8c0.8-5.8,2.3-11.4,4.4-16.8c-1,2.4-2,4.8-3,7.2     c1.6-3.8,3.5-7.5,5.8-11c0.2-0.3,1.7-2.7,1.9-2.7c0.1,0-5,6.1-2.3,3c1.4-1.6,2.8-3.3,4.4-4.8c1.4-1.4,2.9-2.7,4.3-4     c1.9-1.7,4.7-2.3-2.5,1.9c0.7-0.4,1.4-1,2.1-1.5c3.7-2.4,7.5-4.5,11.6-6.2c-2.4,1-4.8,2-7.2,3c5.4-2.2,11-3.6,16.8-4.4     c-2.7,0.4-5.3,0.7-8,1.1c8.9-1,18.1-0.5,27-0.5c18.4,0,36.8,0,55.2,0c27.5,0,55,0,82.4,0c33.7,0,67.4,0,101.1,0     c37,0,73.9,0,110.9,0c37.5,0,75,0,112.5,0c34.8,0,69.5,0,104.3,0c29.3,0,58.5,0,87.8,0c20.8,0,41.7,0,62.5,0c9.5,0,19,0,28.5,0     c3,0,6.1,0.2,9.1,0.5c-2.7-0.4-5.3-0.7-8-1.1c5.8,0.8,11.4,2.3,16.8,4.4c-2.4-1-4.8-2-7.2-3c3.8,1.6,7.5,3.5,11,5.8     c0.3,0.2,2.7,1.7,2.7,1.9c0,0.1-6.1-5-3-2.3c1.6,1.4,3.3,2.8,4.8,4.4c1.4,1.4,2.7,2.9,4,4.3c1.7,1.9,2.3,4.7-1.9-2.5     c0.4,0.7,1,1.4,1.5,2.1c2.4,3.7,4.5,7.5,6.2,11.6c-1-2.4-2-4.8-3-7.2c2.2,5.4,3.6,11,4.4,16.8c-0.4-2.7-0.7-5.3-1.1-8     C930.3,579.4,930.5,582.1,930.5,584.9c0.2,15.7,13.7,30.7,30,30c16.1-0.7,30.2-13.2,30-30c-0.5-44.8-33.2-87.3-78.5-94.4     c-8.6-1.4-16.6-1.8-25.2-1.8c-21.6,0-43.2,0-64.8,0c-38,0-76.1,0-114.1,0c-47.3,0-94.7,0-142,0c-49.8,0-99.6,0-149.4,0     c-45.5,0-91,0-136.5,0c-34.1,0-68.2,0-102.2,0c-15.7,0-31.3,0-47,0c-32.7,0.1-61.5,15.9-80.5,42.2     c-14.5,20.2-16.7,43.9-16.7,67.7c0,42.8,0,85.7,0,128.5c0,3.5,0,7.1,0,10.6c0,16.2,13.7,30,30,30c8,0,16,0,24,0     c21.8,0,43.6,0,65.3,0c32.1,0,64.1,0,96.2,0c39.4,0,78.9,0,118.3,0c42.9,0,85.7,0,128.6,0c43.4,0,86.9,0,130.3,0     c40.5,0,81,0,121.5,0c34.1,0,68.2,0,102.3,0c24.6,0,49.3,0,73.9,0c11.7,0,23.3,0.1,35,0c0.5,0,1,0,1.5,0c16.2,0,30-13.7,30-30     c0-44.5,0-89.1,0-133.6c0-6.4,0-12.8,0-19.2c0-15.7-13.8-30.7-30-30C944.2,555.7,930.5,568.1,930.5,584.9z"></path></g></g><g><g><path d="M930.5,738.3c0,35.6,0,71.1,0,106.7c0,5.1,0,10.2,0,15.3c0,15.7,13.8,30.7,30,30c16.3-0.7,30-13.2,30-30     c0-35.6,0-71.1,0-106.7c0-5.1,0-10.2,0-15.3c0-15.7-13.8-30.7-30-30C944.2,709,930.5,721.4,930.5,738.3L930.5,738.3z"></path></g></g><g><g><path d="M93.5,860.3c0-35.6,0-71.1,0-106.7c0-5.1,0-10.2,0-15.3c0-15.7-13.8-30.7-30-30c-16.3,0.7-30,13.2-30,30     c0,35.6,0,71.1,0,106.7c0,5.1,0,10.2,0,15.3c0,15.7,13.8,30.7,30,30C79.8,889.5,93.5,877.1,93.5,860.3L93.5,860.3z"></path></g></g><g><g><path d="M736,488.8c-14.9,0-29.8,0-44.6,0c-35.7,0-71.4,0-107.2,0c-43,0-86.1,0-129.1,0c-37.3,0-74.7,0-112,0     c-18.1,0-36.3-0.5-54.4,0c-0.2,0-0.5,0-0.7,0c10,10,20,20,30,30c0-12.1,0-24.1,0-36.2c0-12.7-1-25.9,0.6-38.4     c-0.4,2.7-0.7,5.3-1.1,8c0.8-5.3,2.2-10.4,4.3-15.4c-1,2.4-2,4.8-3,7.2c1.4-3.2,3-6.3,5-9.2c0.5-0.7,1-1.4,1.5-2.1     c2.3-3.4-2.2,3.1-2.3,3c-0.2-0.2,3.7-4.1,3.9-4.3c1.2-1.2,2.6-2.3,3.8-3.5c2.2-2.3-5.7,4-3,2.3c0.7-0.5,1.4-1,2.1-1.5     c3.1-2.1,6.4-3.8,9.8-5.3c-2.4,1-4.8,2-7.2,3c5-2.1,10.1-3.5,15.4-4.3c-2.7,0.4-5.3,0.7-8,1.1c12.7-1.6,26.1-0.6,38.9-0.6     c26.3,0,52.6,0,78.9,0c60.1,0,120.1,0,180.2,0c15.3,0,31.3-1.4,46.6,0.6c-2.7-0.4-5.3-0.7-8-1.1c5.3,0.8,10.4,2.2,15.4,4.3     c-2.4-1-4.8-2-7.2-3c3.2,1.4,6.3,3,9.2,5c0.7,0.5,1.4,1,2.1,1.5c3.4,2.3-3.1-2.2-3-2.3c0.2-0.2,4.1,3.7,4.3,3.9     c1.2,1.2,2.3,2.6,3.5,3.8c2.3,2.2-4-5.7-2.3-3c0.5,0.7,1,1.4,1.5,2.1c2.1,3.1,3.8,6.4,5.3,9.8c-1-2.4-2-4.8-3-7.2     c2.1,5,3.5,10.1,4.3,15.4c-0.4-2.7-0.7-5.3-1.1-8c1.6,12.6,0.6,25.8,0.6,38.4c0,12.1,0,24.1,0,36.2c0,15.7,13.8,30.7,30,30     c16.3-0.7,30-13.2,30-30c0-20.4,0-40.8,0-61.2c0-17.1-3-33.4-11.2-48.6c-11.6-21.5-33.4-38.4-57.2-43.9     c-13.3-3.1-26.5-2.6-40-2.6c-19.2,0-38.4,0-57.6,0c-52.8,0-105.5,0-158.3,0c-31.1,0-62.3-0.3-93.4,0     c-21.9,0.2-41.7,7.9-58.6,21.6c-19.4,15.7-29.9,39.7-31.6,64.2c-0.6,8.5-0.1,17.1-0.1,25.6c0,12.7,0,25.3,0,38c0,2.3,0,4.6,0,6.9     c0,16.2,13.7,30,30,30c14.9,0,29.8,0,44.6,0c35.7,0,71.4,0,107.2,0c43,0,86.1,0,129.1,0c37.3,0,74.7,0,112,0     c18.1,0,36.3,0.4,54.4,0c0.2,0,0.5,0,0.7,0c15.7,0,30.7-13.8,30-30C765.3,502.5,752.8,488.8,736,488.8z"></path></g></g><g><g><path d="M482,392.4c0,36.9,0,73.7,0,110.6c0,5.3,0,10.5,0,15.8c0,15.7,13.8,30.7,30,30c16.3-0.7,30-13.2,30-30     c0-36.9,0-73.7,0-110.6c0-5.3,0-10.5,0-15.8c0-15.7-13.8-30.7-30-30C495.7,363.1,482,375.6,482,392.4L482,392.4z"></path></g></g></g></svg>