<svg height='100px' width='100px'  fill="#f18f01" xmlns="http://www.w3.org/2000/svg" xmlns:cc="http://creativecommons.org/ns#" xmlns:dc="http://purl.org/dc/elements/1.1/" xmlns:rdf="http://www.w3.org/1999/02/22-rdf-syntax-ns#" version="1.1" viewBox="0 0 100 100" x="0px" y="0px"><path d="m50.338 5.9082c-21.231 0-38.917 15.021-43.148 35.008h-0.056641c-1.376 0-2.6382 0.31595-3.6465 0.91992-1.0082 0.60397-1.8457 1.6072-1.8457 2.8711v10.535c0 1.2639 0.83746 2.2671 1.8457 2.8711 0.75869 0.45448 1.6897 0.68817 2.6758 0.80469 0.029383 6.0364 0.29153 11.552 1.9785 16.369 1.7744 5.0667 5.1757 9.3534 11.166 12.455 6.1795 3.1996 16.926 4.2267 24.174 4.2871 0.38206 0.93799 1.0113 1.7658 1.9238 2.3047 1.297 0.76588 2.9547 1.1836 4.7676 1.1836 1.8128 0 3.4686-0.41771 4.7656-1.1836s2.3262-1.9909 2.3262-3.5156c-1e-6 -1.5247-1.0292-2.7497-2.3262-3.5156-1.297-0.76588-2.9528-1.1836-4.7656-1.1836-1.8128 0-3.4706 0.41771-4.7676 1.1836-0.87906 0.51908-1.4929 1.3079-1.8887 2.1992-7.009-0.066307-17.779-1.2456-23.061-3.9805-5.514-2.8551-8.3575-6.4986-9.9551-11.061-1.5062-4.301-1.7954-9.5323-1.832-15.428h3.5898a1.2501 1.2501 0 0 0 1.0195-0.26367 1.2501 1.2501 0 0 0 0.02539-0.017578 1.2501 1.2501 0 0 0 0.003907-0.003906 1.2501 1.2501 0 0 0 0.43164-1.1973l0.00586-15.385a1.2501 1.2501 0 0 0-1.25-1.25h-2.7188c4.1886-18.586 20.696-32.508 40.563-32.508 22.632 0 40.926 18.031 41.557 40.51h-1.4062c-1.4906 0-2.6426 1.2891-2.6426 2.7422v1.0723c0 1.4531 1.1519 2.7422 2.6426 2.7422h5.3281c1.4906 0 2.6426-1.2891 2.6426-2.7422v-1.0723c0-1.4531-1.1519-2.7422-2.6426-2.7422h-1.4219c-0.63269-23.832-20.073-43.01-44.057-43.01zm0 10.604c-18.525 0-33.57 15.045-33.57 33.57 0 18.525 15.045 33.568 33.57 33.568 6.862 0 13.252-2.0668 18.57-5.6055 0.11345 0.007157 0.35096 0.047392 0.65625 0.13867 0.6179 0.18475 1.5056 0.55795 2.5234 1.0586 2.0357 1.0013 4.6145 2.5096 7.125 4.0664 5.021 3.1136 9.7812 6.4238 9.7812 6.4238a1.2501 1.2501 0 0 0 1.793-1.6602s-3.0547-5.1992-5.9551-10.65c-1.4502-2.7256-2.8623-5.517-3.8203-7.7168-0.47902-1.0999-0.8441-2.057-1.0391-2.7383-0.09748-0.34062-0.1506-0.61449-0.16406-0.76172-0.003843-0.042029 5.17e-4 -0.039426 0.003906-0.054687 2.6074-4.7732 4.0938-10.251 4.0938-16.068 0-18.525-15.043-33.57-33.568-33.57zm0 2.5c17.174 0 31.068 13.896 31.068 31.07 0 5.4536-1.4015 10.57-3.8652 15.021-0.28872 0.5217-0.25863 0.93665-0.22266 1.3301 0.03597 0.39343 0.12565 0.7862 0.25 1.2207 0.2487 0.86901 0.64677 1.8925 1.1504 3.0488 1.0072 2.3127 2.438 5.1385 3.9043 7.8945 1.7093 3.2127 2.3332 4.2184 3.502 6.2598-1.8771-1.2646-2.7129-1.8874-5.5938-3.6738-2.5469-1.5794-5.1649-3.1158-7.3398-4.1855-1.0874-0.53486-2.0583-0.9537-2.9121-1.209-0.4269-0.12764-0.82332-0.21857-1.2363-0.24219-0.413-0.02362-0.88655-0.0027-1.375 0.32617-4.9511 3.3335-10.907 5.2773-17.33 5.2773-17.174 0-31.07-13.894-31.07-31.068 0-17.174 13.896-31.07 31.07-31.07zm-43.205 24.404h4.1113l-0.00586 13.117h-4.1055c-0.97412 0-1.8361-0.2498-2.3613-0.56445-0.52527-0.31466-0.63086-0.58262-0.63086-0.72656v-10.535c0-0.14394 0.10559-0.4119 0.63086-0.72656 0.52527-0.31466 1.3872-0.56445 2.3613-0.56445zm25.238 0.42383c-3.396 1e-6 -6.1758 2.7798-6.1758 6.1758 2e-6 3.396 2.7798 6.1758 6.1758 6.1758 3.396 0 6.1758-2.7798 6.1758-6.1758-1e-6 -3.396-2.7798-6.1758-6.1758-6.1758zm18.016 0c-3.396 0-6.1758 2.7798-6.1758 6.1758 0 3.396 2.7798 6.1758 6.1758 6.1758s6.1758-2.7798 6.1758-6.1758c-1e-6 -3.396-2.7798-6.1758-6.1758-6.1758zm18.014 0c-3.396 1e-6 -6.1758 2.7798-6.1758 6.1758 1e-6 3.396 2.7798 6.1758 6.1758 6.1758s6.1758-2.7798 6.1758-6.1758c-1e-6 -3.396-2.7798-6.1758-6.1758-6.1758zm-36.029 2.5c2.0449 0 3.6758 1.6309 3.6758 3.6758 0 2.0449-1.6309 3.6758-3.6758 3.6758s-3.6758-1.6309-3.6758-3.6758c2e-6 -2.0449 1.6309-3.6758 3.6758-3.6758zm18.016 0c2.0449 0 3.6758 1.6309 3.6758 3.6758 0 2.0449-1.6309 3.6758-3.6758 3.6758s-3.6758-1.6309-3.6758-3.6758c0-2.0449 1.6309-3.6758 3.6758-3.6758zm18.014 0c2.0449-1e-6 3.6758 1.6309 3.6758 3.6758 0 2.0449-1.6309 3.6758-3.6758 3.6758-2.0449 0-3.6758-1.6309-3.6758-3.6758 1e-6 -2.0449 1.6309-3.6758 3.6758-3.6758zm22.088 5.0781h5.3281c0.05305 0 0.14258 0.04137 0.14258 0.24219v1.0723c0 0.20082-0.08953 0.24219-0.14258 0.24219h-5.3281c-0.05305 0-0.14258-0.04137-0.14258-0.24219v-1.0723c0-0.20082 0.08953-0.24219 0.14258-0.24219zm-40.316 37.201c1.4139-1e-6 2.6766 0.35315 3.4941 0.83594 0.81759 0.48279 1.0977 0.98259 1.0977 1.3633 0 0.38069-0.28007 0.8805-1.0977 1.3633-0.81759 0.48279-2.0802 0.83594-3.4941 0.83594-1.4139 0-2.6785-0.35315-3.4961-0.83594s-1.0977-0.98259-1.0977-1.3633c0-0.38069 0.28007-0.8805 1.0977-1.3633s2.0822-0.83594 3.4961-0.83594z" color="#000000" color-rendering="auto" dominant-baseline="auto" image-rendering="auto" shape-rendering="auto" solid-color="#000000" style="font-feature-settings:normal;font-variant-alternates:normal;font-variant-caps:normal;font-variant-ligatures:normal;font-variant-numeric:normal;font-variant-position:normal;isolation:auto;mix-blend-mode:normal;shape-padding:0;text-decoration-color:#000000;text-decoration-line:none;text-decoration-style:solid;text-indent:0;text-orientation:mixed;text-transform:none;white-space:normal;"></path></svg>
