<svg height='100px' width='100px'  fill="#f18f01" xmlns:x="http://ns.adobe.com/Extensibility/1.0/" xmlns:i="http://ns.adobe.com/AdobeIllustrator/10.0/" xmlns:graph="http://ns.adobe.com/Graphs/1.0/" xmlns="http://www.w3.org/2000/svg" xmlns:xlink="http://www.w3.org/1999/xlink" version="1.1" x="0px" y="0px" viewBox="0 0 100 100" enable-background="new 0 0 100 100" xml:space="preserve"><g><g i:extraneous="self"><path d="M50.369,65.676l-12.137-2.47l-2.139,27.603C35.909,93.19,33.92,95,31.572,95c-0.117,0-0.236-0.004-0.355-0.014    c-2.5-0.193-4.37-2.379-4.175-4.881L28.8,67.395L15.18,85.677c-0.892,1.196-2.259,1.827-3.643,1.827    c-0.943,0-1.896-0.293-2.711-0.9c-2.01-1.5-2.424-4.347-0.926-6.358l19.295-25.896c1.051-1.411,2.822-2.088,4.544-1.736    l14.177,2.885l5.357-24.664L37.492,19.707c-0.861-0.696-1.297-1.791-1.151-2.89c0.145-1.098,0.851-2.042,1.863-2.49l11.954-5.301    c1.606-0.711,3.482,0.014,4.192,1.62c0.712,1.605-0.014,3.484-1.617,4.195l-7.201,3.193l8.508,6.902    c0.989-0.61,2.21-0.842,3.43-0.553l9.497,2.259c1.089,0.259,1.991,0.89,2.606,1.726l13.835-2.981l-6.019-5.812    c-1.265-1.22-1.301-3.232-0.081-4.497c1.218-1.264,3.23-1.3,4.493-0.08l10.309,9.952c0.845,0.815,0.972,2.049,0.851,3.16    c-0.127,1.168-1.239,1.99-2.388,2.237l-20.889,4.504l-0.667,3.015c0.453-0.641,1.199-1.058,2.043-1.058    c1.383,0,2.503,1.119,2.503,2.5v53.116c0,1.381-1.12,2.5-2.503,2.5c-1.382,0-2.502-1.119-2.502-2.5v-21.75H48.54v21.75    c0,1.381-1.121,2.5-2.503,2.5s-2.502-1.119-2.502-2.5v-24.25c0-1.381,1.12-2.5,2.502-2.5H50.369z M68.559,65.676V39.94    l-5.25,23.732c-0.155,0.765-0.494,1.444-0.96,2.003H68.559z M65.306,5c-5.438,0-9.846,4.403-9.846,9.836    c0,5.432,4.408,9.835,9.846,9.835c5.437,0,9.844-4.403,9.844-9.835C75.149,9.403,70.742,5,65.306,5z"></path></g></g></svg>