<svg height='100px' width='100px'  fill="#f18f01" xmlns="http://www.w3.org/2000/svg" data-name="Layer 1" viewBox="0 0 128 128" x="0px" y="0px"><title>Miscellaneous 49 expandlines</title><path d="M106,32A12,12,0,1,0,94,20,12,12,0,0,0,106,32Zm0-20a8,8,0,1,1-8,8A8,8,0,0,1,106,12Z"></path><path d="M22,32A12,12,0,1,0,10,20,12,12,0,0,0,22,32Zm0-20a8,8,0,1,1-8,8A8,8,0,0,1,22,12Z"></path><path d="M64,32A12,12,0,1,0,52,20,12,12,0,0,0,64,32Zm0-20a8,8,0,1,1-8,8A8,8,0,0,1,64,12Z"></path><path d="M12,110a2,2,0,0,0-2,2v6a2,2,0,0,0,4,0v-6A2,2,0,0,0,12,110Z"></path><path d="M32,110a2,2,0,0,0-2,2v6a2,2,0,0,0,4,0v-6A2,2,0,0,0,32,110Z"></path><path d="M96,110a2,2,0,0,0-2,2v6a2,2,0,0,0,4,0v-6A2,2,0,0,0,96,110Z"></path><path d="M116,110a2,2,0,0,0-2,2v6a2,2,0,0,0,4,0v-6A2,2,0,0,0,116,110Z"></path><path d="M54,110a2,2,0,0,0-2,2v6a2,2,0,0,0,4,0v-6A2,2,0,0,0,54,110Z"></path><path d="M74,110a2,2,0,0,0-2,2v6a2,2,0,0,0,4,0v-6A2,2,0,0,0,74,110Z"></path><path d="M71.49,88h-15C48.78,88,42,94.85,42,102.66V118a2,2,0,0,0,4,0V102.66C46,97.08,51,92,56.51,92h15C77,92,82,97.08,82,102.66V118a2,2,0,0,0,4,0V102.66C86,94.85,79.22,88,71.49,88Z"></path><path d="M53,56.55a30.66,30.66,0,0,0-1.92-8.63,3.7,3.7,0,0,0-3.39-2.42H38.31a3.7,3.7,0,0,0-3.39,2.42A30.66,30.66,0,0,0,33,56.55c-.12,2.7,1.45,7.87,8,9.62V70.5H40a2,2,0,0,0,0,4h6a2,2,0,0,0,0-4H45V66.17C51.55,64.42,53.12,59.24,53,56.55ZM37,56.7v-.11a24.91,24.91,0,0,1,1.61-7.09h8.78A24.91,24.91,0,0,1,49,56.59v.11c0,.19.18,4.65-5.91,5.8H42.9C37,61.39,37,57.16,37,56.7Z"></path><path d="M22,60A12,12,0,1,0,34,72,12,12,0,0,0,22,60Zm0,20a8,8,0,1,1,8-8A8,8,0,0,1,22,80Z"></path><path d="M64,84A12,12,0,1,0,52,72,12,12,0,0,0,64,84Zm0-20a8,8,0,1,1-8,8A8,8,0,0,1,64,64Z"></path><path d="M106,84A12,12,0,1,0,94,72,12,12,0,0,0,106,84Zm0-20a8,8,0,1,1-8,8A8,8,0,0,1,106,64Z"></path><path d="M4,44.66A11,11,0,0,1,14.29,34a16.09,16.09,0,0,1-4.12-3.28A15.1,15.1,0,0,0,0,44.66V50.5a8.38,8.38,0,0,1,4-2.28Z"></path><path d="M29.71,34a10.92,10.92,0,0,1,9,5.76,18.67,18.67,0,0,1,1.85-4.37,15.17,15.17,0,0,0-6.72-4.66A16.08,16.08,0,0,1,29.71,34Z"></path><path d="M117.83,30.73A16.09,16.09,0,0,1,113.71,34,11,11,0,0,1,124,44.66V48a8.1,8.1,0,0,1,4,1.41V44.66A15.1,15.1,0,0,0,117.83,30.73Z"></path><path d="M74.53,32h4a14.54,14.54,0,0,0-2.72-1.27A16.65,16.65,0,0,1,74.53,32Z"></path><path d="M94.17,30.73A14.54,14.54,0,0,0,91.45,32h4A16.64,16.64,0,0,1,94.17,30.73Z"></path><path d="M76.17,82c0,.09.06.17.09.26h0s0,.09.05.14a5.31,5.31,0,0,0,.23.6l.09.16a5.3,5.3,0,0,0,.33.56l.11.15a5.27,5.27,0,0,0,.4.49l.16.15a5.22,5.22,0,0,0,.44.4l.24.16a5.13,5.13,0,0,0,.44.29c.11.06.23.11.35.16s.27.13.41.18.32.09.49.13l.33.09a5.1,5.1,0,0,0,.87.08h9.6a5.12,5.12,0,0,0,.8-.07l.21,0a5.09,5.09,0,0,0,.61-.16l.16-.05a5.16,5.16,0,0,0,1.41-.8l0,0a5.28,5.28,0,0,0,1.07-1.15h0A5.31,5.31,0,0,0,95.83,82H93.54A15.73,15.73,0,0,1,92,79.73v1A1.23,1.23,0,0,1,90.8,82H81.2A1.23,1.23,0,0,1,80,80.73v-1.8H91.6a15.84,15.84,0,0,1-1.32-4H80V72a15.9,15.9,0,0,1-3.54,10Z"></path><path d="M56.29,34a16.09,16.09,0,0,1-4.12-3.28A15.3,15.3,0,0,0,42.38,41.5h4.16A11,11,0,0,1,56.29,34Z"></path><path d="M4.58,86h9.69a16.1,16.1,0,0,1-4.74-4h-5C4.44,82,4,81.58,4,80.8L5.27,57.35v-.11c0-.8.43-1.24.58-1.24H29a23.31,23.31,0,0,1,.56-4H5.85c-2.51,0-4.55,2.32-4.58,5.18L0,80.65v.11C0,83.65,2.05,86,4.58,86Z"></path><path d="M123.42,52H99.7l1.64,4h22.08c.14,0,.56.42.58,1.2l-1.27,23.45v.11c0,.8-.43,1.24-.58,1.24h-3.67a16.1,16.1,0,0,1-4.74,4h8.42c2.51,0,4.55-2.32,4.58-5.18L128,57.35v-.11C128,54.35,125.95,52,123.42,52Z"></path><path d="M80.47,52h0c0,.41-.11,1-.18,1.37,0,.2-.07.38-.1.5L79.31,56h0l-2.53,6.16c0,.05,0,.12-.06.17A15.9,15.9,0,0,1,80,72V69.43H90.23a15.85,15.85,0,0,1,1.2-4H80.05a7.58,7.58,0,0,1,.43-1.75L83.63,56h4.74l3.15,7.68a6.32,6.32,0,0,1,.28,1,16.08,16.08,0,0,1,2.84-3.9L92.69,56h0l-.87-2.12c0-.12-.06-.3-.1-.51-.07-.42-.14-1-.18-1.37h0c0-.19,0-.35,0-.45v-4.9A3,3,0,0,0,92,45V41a3,3,0,0,0-3-3H83a3,3,0,0,0-3,3v4a3,3,0,0,0,.5,1.65v4.92C80.5,51.67,80.48,51.82,80.47,52Zm4,0c0-.17,0-.32,0-.43V48h3v3.57c0,.11,0,.26,0,.43ZM84,42h4v2H84Z"></path><path d="M113.49,88h-15a14.57,14.57,0,0,0-11.05,5.4,18.66,18.66,0,0,1,1.85,4.37A10.88,10.88,0,0,1,98.51,92h15C119,92,124,97.08,124,102.66V118a2,2,0,0,0,4,0V102.66C128,94.85,121.22,88,113.49,88Z"></path><path d="M29.49,88h-15C6.78,88,0,94.85,0,102.66V118a2,2,0,0,0,4,0V102.66C4,97.08,9,92,14.51,92h15a10.89,10.89,0,0,1,9.2,5.77,18.67,18.67,0,0,1,1.85-4.37A14.57,14.57,0,0,0,29.49,88Z"></path><path d="M53.73,84.24A16.2,16.2,0,0,1,51.53,82H34.47a16.1,16.1,0,0,1-4.74,4H48.36A18.06,18.06,0,0,1,53.73,84.24Z"></path></svg>