<svg height='100px' width='100px'  fill="#ffffff" xmlns="http://www.w3.org/2000/svg" data-name="Layer 1" viewBox="0 0 24 24" x="0px" y="0px"><path d="M22.39,5.72a.5.5,0,0,0-.69-.14l-18,12a.5.5,0,0,0-.14.7A.49.49,0,0,0,4,18.5a.54.54,0,0,0,.28-.08l18-12A.51.51,0,0,0,22.39,5.72Z"></path><path d="M18.47,6.53V5.62A1.49,1.49,0,0,0,16.3,4.28L9.86,7.5H7A3.5,3.5,0,0,0,3.47,11v2a3.49,3.49,0,0,0,1.28,2.68Z"></path><path d="M9.86,16.5l6.44,3.22a1.51,1.51,0,0,0,1.46-.06,1.48,1.48,0,0,0,.71-1.28V10.14L8.93,16.5Z"></path></svg>