<svg height='100px' width='100px'  fill="#ffffff" xmlns:x="http://ns.adobe.com/Extensibility/1.0/" xmlns:i="http://ns.adobe.com/AdobeIllustrator/10.0/" xmlns:graph="http://ns.adobe.com/Graphs/1.0/" xmlns="http://www.w3.org/2000/svg" xmlns:xlink="http://www.w3.org/1999/xlink" version="1.1" x="0px" y="0px" viewBox="-949 951 100 100" style="enable-background:new -949 951 100 100;" xml:space="preserve"><g><g i:extraneous="self"><g><path d="M-921,1016.6c1.8,0.7,3.4,1.3,6.3,1.9c0.6-0.2,1.7-0.7,2.5-1.1c3.2-1.5,7.5-3.5,13.2-3.5c5.9,0,10.4,2.2,13.3,3.6     c0.8,0.4,1.9,0.9,2.3,1c2.3-0.4,3.9-0.9,5.8-1.5c0.5-0.2,1-0.3,1.5-0.5c-1.8-3.6-4.1-8.3-4.5-9.1c-3.1-1-5.7-3-7.6-5.7     c-0.2-0.3-0.4-0.6-0.6-0.9c-1.5-2.6-2.2-5.4-2.1-8.2c-1-1.2-7.2-10-7.2-10c0,0,14.3-7.5,16.5-8.6c2.2-1.1,3-3.7,1.7-6     c-1.2-2.1-4.1-2.6-6.6-1.4c-2.5,1.3-21.3,10.6-23.3,12c-1.9,1.3-1.4,3.5-0.5,5l-0.1-0.2c0.1,0.1,0.2,0.2,0.4,0.5     c0.9,1.3,7.9,12,8.5,12.7l-21.9,19.1C-922.6,1016-921.8,1016.3-921,1016.6z"></path><circle cx="-876" cy="993.1" r="11.4"></circle><path d="M-851.7,1029.4c-0.4-1.3-1.3-2.4-2.5-3c-5.6-2.9-9.5-4.1-13.2-4.1c-2.8,0-5.2,0.7-7.8,1.6c-2,0.6-4,1.3-6.9,1.8     c-0.4,0.1-0.8,0.1-1.2,0.1c-1.8,0-3.4-0.8-5.5-1.8c-2.6-1.3-5.9-2.9-10.1-2.9c-4,0-7.2,1.5-10.1,2.8c-2.2,1-3.9,1.8-5.6,1.8     c-0.3,0-0.7,0-1-0.1c-3.7-0.7-5.9-1.6-7.9-2.3c-2.3-0.9-4.3-1.6-6.7-1.6c-3.3,0-6.8,1.2-13.3,4.6c-1.2,0.6-2.1,1.7-2.5,3     c-0.4,1.3-0.3,2.7,0.3,3.9c0.9,1.7,2.6,2.8,4.6,2.8c0.8,0,1.6-0.2,2.3-0.6c4.8-2.5,7.2-3.4,8.6-3.4c0.8,0,1.6,0.3,3.1,0.9     c2.1,0.8,5,1.9,9.6,2.8c1,0.2,2,0.3,3,0.3c4,0,7.3-1.6,10-2.8c2.1-1,4-1.9,5.7-1.9c1.9,0,3.5,0.8,5.6,1.8c2.6,1.3,5.8,2.9,10,2.9     c1,0,2-0.1,3-0.3c3.6-0.6,6.2-1.5,8.3-2.2c2-0.6,3.2-1.1,4.6-1.1c1.9,0,4.5,0.9,8.5,3c0.7,0.4,1.5,0.6,2.4,0.6     c1.9,0,3.7-1.1,4.6-2.8C-851.4,1032.1-851.3,1030.8-851.7,1029.4z"></path></g></g></g></svg>