<svg height='110px' width='110px'  fill="#f18f01" xmlns="http://www.w3.org/2000/svg" xmlns:xlink="http://www.w3.org/1999/xlink" version="1.1" x="0px" y="0px" viewBox="0 0 100 100" style="enable-background:new 0 0 100 100;" xml:space="preserve"><path d="M62.7128906,33.828125c0.1835938,0.3256836,0.5224609,0.5087891,0.8720703,0.5087891  c0.1660156,0,0.3349609-0.0415039,0.4902344-0.1289062c0.4814453-0.2714844,0.6513672-0.8813477,0.3798828-1.3623047  c-2.90625-5.152832-8.3681641-8.3540039-14.2558594-8.3540039c-5.8867188,0-11.3496094,3.2006836-14.2548828,8.3530273  c-0.2714844,0.480957-0.1015625,1.0908203,0.3798828,1.3623047c0.4814453,0.2705078,1.0908203,0.1000977,1.3623047-0.3798828  c2.5517578-4.5249023,7.3466797-7.3354492,12.5126953-7.3354492C55.3662109,26.4916992,60.1611328,29.3027344,62.7128906,33.828125z  "></path><path d="M30.7451172,30.878418c0.4814453,0.2705078,1.0908203,0.1000977,1.3623047-0.3798828  c3.6894531-6.5415039,10.6220703-10.6049805,18.0917969-10.6049805c7.4707031,0,14.4033203,4.0644531,18.0917969,10.6069336  c0.1835938,0.3256836,0.5224609,0.5087891,0.8720703,0.5087891c0.1660156,0,0.3349609-0.0415039,0.4902344-0.1289062  c0.4814453-0.2714844,0.6513672-0.8813477,0.3798828-1.3623047c-4.0429688-7.1704102-11.6425781-11.6245117-19.8339844-11.6245117  c-8.1904297,0-15.7900391,4.4536133-19.8339844,11.6225586C30.09375,29.9970703,30.2636719,30.6069336,30.7451172,30.878418z"></path><path d="M50.1992188,31.5341797c-3.5703125,0-6.7763672,2.1347656-8.1689453,5.4384766  c-0.2138672,0.5087891,0.0244141,1.0952148,0.5332031,1.3095703c0.5068359,0.215332,1.0957031-0.0234375,1.3105469-0.5332031  c1.0791016-2.5605469,3.5615234-4.2148438,6.3251953-4.2148438c2.7646484,0,5.2470703,1.6542969,6.3261719,4.2148438  c0.1611328,0.3823242,0.5322266,0.6123047,0.921875,0.6123047c0.1298828,0,0.2617188-0.0253906,0.3886719-0.0791016  c0.5087891-0.2143555,0.7470703-0.8007812,0.5332031-1.3095703C56.9765625,33.6689453,53.7695312,31.5341797,50.1992188,31.5341797z  "></path><path d="M26.109375,90.0131836h48.1806641c3.7910156,0,6.875-3.0839844,6.875-6.875v-66.25c0-3.7910156-3.0839844-6.875-6.875-6.875  H26.109375c-3.7910156,0-6.875,3.0839844-6.875,6.875v66.25C19.234375,86.9291992,22.3183594,90.0131836,26.109375,90.0131836z   M21.234375,16.8881836c0-2.6879883,2.1865234-4.875,4.875-4.875h48.1806641c2.6884766,0,4.875,2.1870117,4.875,4.875v66.25  c0,2.6879883-2.1865234,4.875-4.875,4.875H26.109375c-2.6884766,0-4.875-2.1870117-4.875-4.875V16.8881836z"></path><path d="M68.8837891,55.8520508c-0.0036011-0.0064087-0.0100708-0.0097046-0.0137939-0.0159912  c-1.7978516-5.1765747-5.6777954-9.3787842-10.6447144-11.5952759c-0.0499268-0.0262451-0.0961914-0.0546265-0.1496582-0.0721436  c-2.4158325-1.0536499-5.0769043-1.6461792-7.8764038-1.6461792c-10.9052734,0-19.7773438,8.8720703-19.7773438,19.7768555  c0,2.7816162,0.583374,5.4276123,1.6243286,7.8311768c0.0153198,0.045105,0.0391846,0.0834351,0.0604858,0.1254272  c3.069397,6.9512939,10.0183716,11.8207397,18.0925293,11.8207397c0.3204346,0,0.6325684-0.032959,0.9493408-0.0480957  c0.0522461,0.0082397,0.1046143,0.0148926,0.1561279,0.0148926c0.0632935,0,0.1216431-0.0204468,0.1824341-0.0320435  c6.6758423-0.4332886,12.4472046-4.1828613,15.692688-9.6248779c0.0983887-0.1033325,0.1706543-0.2249756,0.2173462-0.3573608  c1.6338501-2.8762817,2.5794067-6.1921387,2.5794067-9.7298584c0-2.1949463-0.3743286-4.3004761-1.0374756-6.2749634  C68.9196777,55.9668579,68.9144897,55.9069824,68.8837891,55.8520508z M66.7404785,55.8310547  c-1.3612671,0.5394897-4.0531006,1.144165-6.4934082-1.0820312c-1.1621094-1.0605469-2.3964844-1.1992188-3.3876953-1.3100586  c-1.2539062-0.140625-2.0107422-0.2255859-2.7060547-1.9985352c-0.9804688-2.503479,2.4006958-4.5635376,3.6083374-5.2055664  C61.8483276,48.166687,65.0801392,51.6008911,66.7404785,55.8310547z M32.421875,62.2993164  c0-7.769043,5.0175171-14.3731079,11.9763184-16.7855225c0.9349976,0.7854614,2.4970703,2.3831787,2.7355957,3.9505615  c0.1025391,0.6748047-0.0537109,1.2802734-0.4775391,1.8515625c-2.6875,3.6196289-3.2802734,4.7407227-3.4521484,8.3945312  c-0.2005615,4.2712402-1.5158691,9.0982666-9.5311279,9.0980225C32.874939,66.7897949,32.421875,64.5983276,32.421875,62.2993164z   M52.388916,79.9273682c-0.0292969-2.4953613-1.2188721-5.083374-1.2512207-5.1451416  c-0.0195312-0.0522461-1.9052734-5.2919922,0.4707031-8.3242188c2.2900391-2.9238281,5.1464844-2.0991211,5.2597656-2.065918  c0.0517578,0.0166016,0.1103516,0.0297852,0.1650391,0.0375977c0.2151489,0.0314331,5.1765747,0.838562,8.2723999,7.1950073  C62.5341797,76.0974121,57.8468628,79.2525635,52.388916,79.9273682z M66.4395142,69.4981689  c-3.4168701-5.880188-8.3265381-6.9163818-9.0518188-7.0372314c-0.6367188-0.1748047-4.4033203-1.0039062-7.3535156,2.7636719  c-3.0556641,3.8994141-0.8681641,9.9907227-0.7412109,10.3251953c0.0129395,0.0275879,1.1286621,2.4589233,1.1016235,4.5169678  c-0.0657959,0.0007324-0.1294556,0.0098877-0.1953735,0.0098877c-6.7147217,0-12.5689697-3.7437134-15.5927124-9.251709  c3.6989136-0.0935669,10.1411133-1.3264771,10.5956421-11.020752c0.1494141-3.1796875,0.5234375-3.8798828,3.0595703-7.2958984  c0.7480469-1.0073242,1.0332031-2.1323242,0.8496094-3.3447266c-0.2611694-1.7175903-1.4555664-3.2559204-2.4633789-4.2834473  c1.1479492-0.2337036,2.3353271-0.357666,3.5512695-0.357666c1.8217773,0,3.5795288,0.2775269,5.2355957,0.7889404  c-1.9096069,1.3092041-4.378479,3.706543-3.1428223,6.8585205c1.1347656,2.8964844,2.9150391,3.0961914,4.3447266,3.2563477  c0.8828125,0.0991211,1.5800781,0.1772461,2.2626953,0.800293c1.6748047,1.527832,3.5664062,2.0981445,5.3388672,2.0981445  c1.1188965,0,2.1825562-0.236145,3.1212158-0.5938721c0.3894043,1.4606934,0.6170654,2.9868164,0.6170654,4.5684814  C67.9765625,64.8626099,67.4202271,67.2947388,66.4395142,69.4981689z"></path></svg>
