<svg height='100px' width='100px'  fill="#ffffff" xmlns:x="http://ns.adobe.com/Extensibility/1.0/" xmlns:i="http://ns.adobe.com/AdobeIllustrator/10.0/" xmlns:graph="http://ns.adobe.com/Graphs/1.0/" xmlns="http://www.w3.org/2000/svg" xmlns:xlink="http://www.w3.org/1999/xlink" version="1.1" x="0px" y="0px" viewBox="0 0 100 100" style="enable-background:new 0 0 100 100;" xml:space="preserve"><g><g i:extraneous="self"><g><path d="M87,45.3v-1h0c0,0,0-0.1,0-0.1c0-4.4-9.4-8-21.1-8c-11.6,0-21,3.6-21,8c0,0,0,0.1,0,0.1h0v8.5c1,0.7,1.9,1.6,2.5,2.8     c0.2,0.5,0.4,1,0.5,1.5l0.8,0.2c2.1,0.6,4.2,1.6,6.4,3c2.4,1.5,4.4,3.3,6,5.2c1.1,1.4,1.6,3.1,1.4,4.8c0,0,0,0,0,0l1,2.6l0.4,1.1     c0.7,0.1,1.3,0.1,2,0.1c6.5,0,12.3-2.9,16.2-7.6h4.7c5.9,0,10.7-4.8,10.7-10.7C97.5,50.1,92.8,45.4,87,45.3z M65.9,47.5     c-8.4,0-13.9-2-15.8-3.3c2-1.3,7.4-3.3,15.8-3.3c8.4,0,13.9,2,15.8,3.3C79.8,45.5,74.3,47.5,65.9,47.5z M86.8,61.9H85     c1.2-2.7,2-5.7,2-8.8V50c3.2,0.1,5.9,2.7,5.9,6C92.8,59.3,90.1,61.9,86.8,61.9z"></path><path d="M56.3,32.4c0.8-0.3,1.2-1.2,0.9-1.9l0-0.1c-0.5-1.4-0.8-2.7-0.8-3.9c0.1-1.2,0.5-2.4,1.1-3.8c0.3-0.7,0.6-1.5,0.9-2.3     c0.3-0.9,0.7-2,0.7-3c0.1-1.1-0.1-2.1-0.5-3.1c-0.2-0.5-0.4-1-0.7-1.4c-0.3-0.5-0.5-0.8-1-1.3c-0.3-0.4-0.9-0.5-1.4-0.4     c-0.8,0.2-1.3,1-1.1,1.7l0.1,0.6c0,0.2,0.2,0.5,0.3,0.8c0.1,0.3,0.1,0.6,0.2,0.9c0.1,0.6,0,1.2-0.1,1.8c-0.1,0.6-0.3,1.1-0.6,1.7     l-1,2.2c-0.3,0.8-0.7,1.7-0.9,2.6c-0.2,1-0.3,2-0.3,3c0.1,2.1,1.1,4,2.3,5.3C55,32.4,55.7,32.6,56.3,32.4z"></path><path d="M66.5,31.5c0.8-0.3,1.2-1.1,0.9-1.9l0-0.1c-0.5-1.4-0.8-2.7-0.8-3.9c0.1-1.2,0.5-2.4,1.1-3.8c0.3-0.7,0.6-1.5,0.9-2.3     c0.3-0.9,0.7-2,0.7-3c0.1-1.1-0.1-2.1-0.5-3.1c-0.2-0.5-0.4-1-0.7-1.4c-0.3-0.5-0.5-0.8-1-1.3c-0.3-0.4-0.9-0.5-1.4-0.4     c-0.8,0.2-1.3,1-1.1,1.7l0.1,0.6c0,0.2,0.2,0.5,0.3,0.8c0.1,0.3,0.1,0.6,0.2,0.9c0.1,0.6,0,1.2-0.1,1.8c-0.1,0.6-0.3,1.1-0.6,1.7     l-1,2.2c-0.3,0.8-0.7,1.7-0.9,2.6c-0.2,1-0.4,2-0.3,3c0.1,2.1,1.1,4,2.3,5.3C65.2,31.5,65.9,31.7,66.5,31.5z"></path><path d="M76.6,32.4c0.8-0.3,1.2-1.2,0.9-1.9l0-0.1c-0.5-1.4-0.8-2.7-0.8-3.9c0.1-1.2,0.5-2.4,1.1-3.8c0.3-0.7,0.6-1.5,0.9-2.3     c0.3-0.9,0.7-2,0.7-3c0.1-1.1-0.1-2.1-0.5-3.1c-0.2-0.5-0.4-1-0.6-1.4c-0.3-0.5-0.5-0.8-1-1.3c-0.3-0.4-0.9-0.5-1.4-0.4     c-0.8,0.2-1.3,1-1.1,1.7l0.1,0.6c0,0.2,0.2,0.5,0.3,0.8c0.1,0.3,0.1,0.6,0.2,0.9c0.1,0.6,0,1.2-0.1,1.8c-0.1,0.6-0.3,1.1-0.6,1.7     l-1,2.2c-0.3,0.8-0.7,1.7-0.9,2.6c-0.2,1-0.3,2-0.3,3c0.1,2.1,1.1,4,2.3,5.3C75.4,32.4,76,32.6,76.6,32.4z"></path><path d="M6.4,74.4l-3.6,9.1c-1.6,4.1,3.1,7.9,6.8,5.4l8-5.5L6.9,74.9C6.7,74.7,6.5,74.6,6.4,74.4z"></path><path d="M60.5,74.4c-0.1,0.2-0.3,0.3-0.5,0.4l-10.6,8.6l7.9,5.5c3.7,2.5,8.4-1.2,6.8-5.4L60.5,74.4z"></path><path d="M19.2,61.4c-0.1-0.3-0.2-0.6-0.2-0.9c-1.5,0.5-3.3,1.3-5.3,2.5c-2.5,1.6-4.1,3.3-5.2,4.6c-1.2,1.4-0.9,3.6,0.5,4.7     L19.7,81c1.1,0.9,2.7,1,3.9,0.2l2.1-1.4c-0.5-0.6-0.9-1.3-1.1-2.1L19.2,61.4z"></path><path d="M58.5,67.6c-1.1-1.3-2.7-3-5.2-4.6c-2-1.3-3.8-2.1-5.3-2.5c-0.1,0.3-0.1,0.6-0.2,0.9l-5.5,16.4c-0.3,0.8-0.7,1.5-1.1,2.1     l2.1,1.4c1.2,0.8,2.8,0.7,3.9-0.2L58,72.3C59.4,71.2,59.7,69.1,58.5,67.6z"></path><path d="M42,55c-2-0.7-4.9-1.3-8.6-1.3c-3.7,0-6.5,0.6-8.6,1.3c-2.2,0.7-3.4,3.1-2.6,5.3l5.5,16.4c0.6,1.7,2.2,2.9,4,2.9h3.5     c1.8,0,3.4-1.2,4-2.9l5.5-16.4C45.4,58.1,44.2,55.7,42,55z"></path></g></g></g></svg>