<svg height='125px' width='125px'  fill="#f18f01" xmlns="http://www.w3.org/2000/svg" xmlns:xlink="http://www.w3.org/1999/xlink" version="1.1" x="0px" y="0px" viewBox="0 0 100 100" style="enable-background:new 0 0 100 100;" xml:space="preserve"><path d="M82,37.69H69.42c-0.87,0-1.61,0.58-1.83,1.39h-9.24v-1.36c0-1.16-0.96-2.1-2.32-2.41c-0.05-0.87-0.33-6.55,2.89-10.09  c1.81-1.99,4.43-3,7.8-3C78,22.22,78.14,35,78.16,35.54c0,0.58,0.45,1.05,1.03,1.05s1.05-0.47,1.05-1.05c0-0.14-0.02-3.85-1.65-7.6  c-1.12-2.55-2.7-4.5-4.69-5.81c-2.01-1.32-4.41-1.99-7.18-1.99c-4,0-7.13,1.23-9.35,3.69c-3.65,4.05-3.53,10.08-3.44,11.5  c-1.32,0.31-2.26,1.25-2.26,2.39v1.36h-5.5c-0.96,0-1.85,0.42-2.46,1.16c-0.6,0.74-0.85,1.7-0.67,2.64l1.47,7.65l0.85,4.41  c0,0.02,0,0.04,0.02,0.07l3.89,20.31l0.85,4.49c0.29,1.5,1.61,2.59,3.15,2.59h24.6c1.56,0,2.88-1.1,3.15-2.62l2.17-12.17h3.42  c1.05,0,1.9-0.85,1.9-1.9V44.2C88.51,40.6,85.6,37.69,82,37.69z M78.97,79.4c-0.11,0.54-0.56,0.92-1.1,0.92h-24.6  c-0.54,0-0.99-0.38-1.1-0.9l-0.62-3.26h12.32c0.56,0,1.03-0.47,1.03-1.03c0-0.58-0.47-1.05-1.03-1.05H51.15l-3.51-18.27h16.23  c0.56,0,1.03-0.45,1.03-1.03s-0.47-1.05-1.03-1.05H47.25l-0.45-2.37h17.08c0.56,0,1.03-0.47,1.03-1.05s-0.47-1.03-1.03-1.03H46.4  l-1.3-6.8c-0.05-0.33,0.02-0.67,0.24-0.92c0.22-0.25,0.52-0.4,0.85-0.4h6.55c0.56,0,1.03-0.47,1.03-1.05v-2.39  c0.04-0.13,0.47-0.45,1.25-0.45s1.21,0.33,1.25,0.45v2.39c0,0.58,0.47,1.05,1.05,1.05h10.22v24.55c0,1.05,0.85,1.9,1.9,1.9h11.65  L78.97,79.4z M86.43,65.53H74.16V51.58c0-0.58-0.47-1.05-1.03-1.05c-0.58,0-1.05,0.47-1.05,1.05v13.95H69.6V39.77H82  c2.44,0,4.43,1.99,4.43,4.43V65.53z"></path><g><path d="M46.36,22.73c-0.24-0.42-0.61-0.71-1.07-0.83l-1.09-0.31c-0.94-0.27-1.9,0.27-2.17,1.21L26.48,78.16H20.4   c-2.84,0-5.16,2.32-5.16,5.17c0,0.58,0.45,1.03,1.03,1.03h26.14c0.58,0,1.03-0.45,1.03-1.03c0-2.86-2.32-5.17-5.16-5.17h-7   l15.21-54.1C46.63,23.6,46.58,23.13,46.36,22.73z M38.29,80.24c1.34,0,2.48,0.85,2.89,2.04h-3.04c-0.22-0.83-0.54-1.5-0.9-2.04   H38.29z M35.18,80.24c0.4,0.34,0.98,0.99,1.34,2.04H17.51c0.42-1.19,1.56-2.04,2.89-2.04H35.18z M29.66,78.16h-1.57l15.45-54.94   c0.04-0.09,0.14-0.14,0.24-0.13l1.1,0.31c0.09,0.02,0.16,0.14,0.13,0.24L29.66,78.16z"></path></g><path d="M17.51,71.83c-0.16-1.68,1.07-3.17,2.74-3.33s3.17,1.07,3.33,2.74c0.16,1.68-1.07,3.17-2.74,3.33  C19.17,74.74,17.68,73.51,17.51,71.83z M21.48,71.45c-0.05-0.51-0.5-0.88-1.01-0.83c-0.51,0.05-0.88,0.5-0.83,1.01  c0.05,0.51,0.5,0.88,1.01,0.83C21.15,72.41,21.53,71.96,21.48,71.45z"></path><path d="M9.06,63.85c-0.1-1.08,0.69-2.04,1.76-2.14s2.04,0.69,2.14,1.76c0.1,1.08-0.69,2.04-1.76,2.14S9.16,64.92,9.06,63.85z   M11.18,63.64c-0.01-0.09-0.09-0.16-0.18-0.15c-0.18,0.02-0.15,0.35,0.03,0.33C11.12,63.81,11.19,63.73,11.18,63.64z"></path><path d="M15.07,62.14c-0.24-2.51,1.6-4.75,4.11-5c2.51-0.24,4.75,1.6,5,4.11c0.24,2.51-1.6,4.75-4.11,5S15.32,64.65,15.07,62.14z   M22.07,61.46c-0.13-1.34-1.33-2.33-2.67-2.2c-1.34,0.13-2.33,1.33-2.2,2.67c0.13,1.34,1.33,2.33,2.67,2.2  C21.21,64,22.2,62.8,22.07,61.46z"></path></svg>
