<svg height='100px' width='100px'  fill="#f18f01" xmlns="http://www.w3.org/2000/svg" xmlns:xlink="http://www.w3.org/1999/xlink" version="1.1" x="0px" y="0px" viewBox="0 0 100 100" style="enable-background:new 0 0 100 100;" xml:space="preserve"><path d="M20.851,64.639c5.482,0,9.942-4.46,9.942-9.942c0-5.481-4.46-9.941-9.942-9.941s-9.942,4.46-9.942,9.941  C10.909,60.179,15.369,64.639,20.851,64.639z M20.851,47.755c3.828,0,6.942,3.114,6.942,6.941c0,3.828-3.114,6.942-6.942,6.942  s-6.942-3.114-6.942-6.942C13.909,50.869,17.023,47.755,20.851,47.755z"></path><path d="M20.851,67.367C12.111,67.367,5,74.478,5,83.218c0,2.689,2.188,4.877,4.877,4.877h21.949c2.689,0,4.876-2.188,4.876-4.877  C36.702,74.478,29.591,67.367,20.851,67.367z M31.826,85.095H9.877C8.842,85.095,8,84.253,8,83.218  c0-7.086,5.765-12.851,12.851-12.851s12.851,5.765,12.851,12.851C33.702,84.253,32.86,85.095,31.826,85.095z"></path><path d="M50,46.092c5.482,0,9.942-4.46,9.942-9.941c0-5.482-4.46-9.942-9.942-9.942s-9.942,4.46-9.942,9.942  C40.058,41.632,44.518,46.092,50,46.092z M50,29.208c3.828,0,6.942,3.114,6.942,6.942c0,3.827-3.114,6.941-6.942,6.941  s-6.942-3.114-6.942-6.941C43.058,32.322,46.172,29.208,50,29.208z"></path><path d="M65.851,64.672c0-8.74-7.111-15.852-15.851-15.852s-15.851,7.111-15.851,15.852c0,2.689,2.188,4.877,4.876,4.877h21.949  C63.664,69.549,65.851,67.361,65.851,64.672z M60.975,66.549H39.025c-1.035,0-1.876-0.842-1.876-1.877  c0-7.086,5.765-12.852,12.851-12.852s12.851,5.766,12.851,12.852C62.851,65.707,62.009,66.549,60.975,66.549z"></path><path d="M79.149,64.639c5.482,0,9.942-4.46,9.942-9.942c0-5.481-4.46-9.941-9.942-9.941s-9.942,4.46-9.942,9.941  C69.207,60.179,73.667,64.639,79.149,64.639z M79.149,47.755c3.828,0,6.942,3.114,6.942,6.941c0,3.828-3.114,6.942-6.942,6.942  s-6.942-3.114-6.942-6.942C72.207,50.869,75.321,47.755,79.149,47.755z"></path><path d="M79.149,67.367c-8.74,0-15.851,7.11-15.851,15.851c0,2.689,2.188,4.877,4.876,4.877h21.949c2.689,0,4.877-2.188,4.877-4.877  C95,74.478,87.889,67.367,79.149,67.367z M90.123,85.095H68.174c-1.035,0-1.876-0.842-1.876-1.877  c0-7.086,5.765-12.851,12.851-12.851S92,76.132,92,83.218C92,84.253,91.158,85.095,90.123,85.095z"></path><path d="M50,20.677c0.829,0,1.5-0.672,1.5-1.5v-7.771c0-0.828-0.671-1.5-1.5-1.5s-1.5,0.672-1.5,1.5v7.771  C48.5,20.005,49.171,20.677,50,20.677z"></path><path d="M73.129,30.257c0.384,0,0.768-0.146,1.061-0.439l5.495-5.495c0.586-0.586,0.586-1.535,0-2.121s-1.535-0.586-2.121,0  l-5.495,5.495c-0.586,0.586-0.586,1.535,0,2.121C72.361,30.11,72.745,30.257,73.129,30.257z"></path><path d="M25.811,29.817c0.293,0.293,0.677,0.439,1.061,0.439s0.768-0.146,1.061-0.439c0.586-0.586,0.586-1.535,0-2.121l-5.495-5.495  c-0.586-0.586-1.535-0.586-2.121,0s-0.586,1.535,0,2.121L25.811,29.817z"></path><path d="M36.097,22.24c0.239,0.577,0.798,0.926,1.386,0.926c0.191,0,0.386-0.036,0.574-0.114c0.765-0.317,1.128-1.194,0.812-1.96  l-2.974-7.18c-0.317-0.766-1.195-1.13-1.96-0.812c-0.765,0.317-1.128,1.194-0.812,1.96L36.097,22.24z"></path><path d="M61.943,23.052c0.188,0.078,0.382,0.114,0.574,0.114c0.588,0,1.147-0.349,1.386-0.926l2.974-7.18  c0.317-0.766-0.046-1.643-0.812-1.96c-0.767-0.318-1.643,0.046-1.96,0.812l-2.974,7.18C60.814,21.857,61.178,22.734,61.943,23.052z"></path></svg>