<svg height='100px' width='100px'  fill="#f18f01" xmlns="http://www.w3.org/2000/svg" xmlns:xlink="http://www.w3.org/1999/xlink" version="1.1" x="0px" y="0px" viewBox="0 0 65 65" enable-background="new 0 0 65 65" xml:space="preserve"><g><path d="M64.8,44.5l0-0.1c-0.1-1-0.4-2-1-3l0-0.1c-0.5-0.9-1.3-1.6-2.2-2.2c-0.3-0.2-0.6-0.3-1-0.4l-5-1.8l-2,3.9   c-0.2-0.1-0.4-0.2-0.6-0.3l-5.5-2l-2.4,4.6l-5.8-2.1l-5.7,10.6h-2.2l-5.7-10.6l-5.8,2.1l-2.4-4.6l-5.5,2c-0.2,0.1-0.4,0.2-0.6,0.3   l-2-3.9l-5,1.8c-0.3,0.1-0.7,0.3-1,0.4c-0.9,0.5-1.7,1.3-2.2,2.1l-0.1,0.2c-0.6,1-0.9,2-1,2.9l0,0.1c-0.1,0.4-0.2,1.7-0.4,3.8   c-0.1,1.1,0.3,2.1,1,2.9c0.7,0.8,1.7,1.2,2.8,1.2h3.3c0.1,0.8,0.4,1.5,1,2.1c0.7,0.8,1.7,1.2,2.8,1.2h2.9c0,0.2,0,0.5-0.1,0.7   c-0.1,1,0.3,2.1,1,2.9c0.7,0.8,1.7,1.2,2.8,1.2h30.5c1,0,2.1-0.4,2.8-1.2c0.7-0.8,1.1-1.8,1-2.9c0-0.3,0-0.5-0.1-0.7h3   c1.1,0,2.1-0.4,2.8-1.2c0.5-0.6,0.9-1.3,1-2.1h3.3c1.1,0,2.1-0.4,2.8-1.2c0.7-0.8,1.1-1.8,1-2.9C65,46.2,64.9,45,64.8,44.5z    M7.4,46.8l0,0.2c-0.1,0.5-0.2,1.8-0.4,3.9H3.5c-0.6,0-1.2-0.3-1.7-0.7c-0.4-0.5-0.6-1.1-0.6-1.7c0.2-2.1,0.4-3.3,0.4-3.7   c0-0.1,0-0.2,0-0.2c0.1-0.8,0.4-1.6,0.9-2.5c0.4-0.7,0.9-1.2,1.6-1.6c0.2-0.1,0.5-0.2,0.7-0.3l3.8-1.3l1.5,2.8   c-0.7,0.5-1.2,1.1-1.6,1.8l-0.1,0.2C7.8,44.6,7.5,45.7,7.4,46.8z M14.1,51c-0.1,0.3-0.3,1.4-0.5,3.2h-3.1c-0.6,0-1.2-0.3-1.7-0.7   c-0.4-0.5-0.6-1.1-0.6-1.7c0.2-2.5,0.4-4.1,0.5-4.6c0-0.1,0-0.2,0-0.2c0.1-0.9,0.4-1.8,1-2.8c0.4-0.7,1.1-1.4,1.9-1.8   c0.3-0.1,0.5-0.3,0.8-0.4l4.3-1.5l1.7,3.3c-1.3,0.7-2.4,1.7-3.1,2.9C14.6,48.1,14.2,49.6,14.1,51z M49.4,58.3   c-0.4,0.5-1,0.7-1.7,0.7H17.2c-0.6,0-1.2-0.3-1.7-0.7c-0.4-0.5-0.7-1.1-0.6-1.7c0.3-3.5,0.7-5.3,0.7-5.3l0-0.2   c0-1.2,0.4-2.4,1.1-3.7c0.7-1.2,1.8-2.1,3.2-2.7l5-1.8l5.5,10.3h4L40,42.9l5,1.8c0.4,0.1,0.7,0.3,1,0.4c0.9,0.5,1.6,1.2,2.2,2.1   l0,0.1c0.6,1.1,1,2.2,1.1,3.2c0,0,0,0.1,0,0.3c0.1,0.6,0.4,2.5,0.6,5.8C50.1,57.2,49.9,57.8,49.4,58.3z M56.1,53.5   c-0.4,0.5-1,0.7-1.7,0.7h-3.1c-0.2-1.9-0.4-3.1-0.4-3.6l0-0.2c-0.1-1.2-0.5-2.5-1.3-3.8l0-0.1c-0.6-1.1-1.6-2-2.7-2.7   c-0.1-0.1-0.2-0.1-0.3-0.1l1.7-3.3l4.3,1.5c0.3,0.1,0.6,0.2,0.8,0.4c0.8,0.4,1.4,1,1.9,1.8l0,0.1c0.5,0.9,0.9,1.9,0.9,2.7   c0,0,0,0.1,0,0.2c0.1,0.5,0.3,2,0.5,4.6C56.7,52.4,56.5,53,56.1,53.5z M63.2,50.1c-0.4,0.5-1,0.7-1.7,0.7h-3.4   c-0.2-2.1-0.4-3.5-0.4-3.9l0-0.2c-0.1-1.1-0.5-2.2-1.1-3.3l0-0.1c-0.4-0.7-1-1.3-1.6-1.8l1.5-2.8l3.7,1.3c0.3,0.1,0.5,0.2,0.7,0.3   c0.7,0.4,1.2,0.9,1.6,1.6l0,0.1c0.5,0.8,0.8,1.6,0.8,2.4c0,0,0,0.1,0,0.2c0.1,0.5,0.2,1.7,0.4,3.7C63.8,49.1,63.6,49.7,63.2,50.1z"></path><path d="M14.6,36.9c1.2,0,2.3-0.3,3.3-0.8c1.4,1.4,3.4,2.3,5.5,2.3c1,0,1.9-0.2,2.7-0.5c1.6,1.7,3.9,2.7,6.4,2.7   c2.5,0,4.7-1,6.4-2.7c0.9,0.3,1.8,0.5,2.7,0.5c2.2,0,4.1-0.9,5.5-2.3c1,0.5,2.1,0.8,3.3,0.8c3.9,0,7-3.2,7-7c0-3.9-3.2-7-7-7   c-1.5,0-3,0.5-4.2,1.4c-1.3-0.9-2.8-1.5-4.5-1.5c-1.6,0-3.2,0.5-4.5,1.4c-1.3-0.8-2.9-1.3-4.6-1.3c-1.7,0-3.3,0.5-4.6,1.3   c-1.3-0.9-2.9-1.4-4.5-1.4c-1.7,0-3.3,0.6-4.5,1.5c-1.2-0.9-2.7-1.4-4.2-1.4c-3.9,0-7,3.2-7,7C7.6,33.7,10.7,36.9,14.6,36.9z    M55.9,29.9c0,3.1-2.5,5.5-5.5,5.5c-0.8,0-1.6-0.2-2.3-0.5c0.8-1.2,1.3-2.7,1.3-4.3c0-2-0.8-3.9-2.1-5.3c0.9-0.6,2-1,3.1-1   C53.4,24.3,55.9,26.8,55.9,29.9z M41.6,24.3c3.5,0,6.3,2.8,6.3,6.3c0,3.5-2.8,6.3-6.3,6.3c-0.6,0-1.2-0.1-1.7-0.3   c0.9-1.4,1.5-3.1,1.5-4.9c0-2.6-1.1-4.9-2.9-6.6C39.4,24.6,40.5,24.3,41.6,24.3z M39.9,31.7c0,4.1-3.3,7.3-7.4,7.3   s-7.3-3.3-7.3-7.3c0-4.1,3.3-7.4,7.3-7.4S39.9,27.7,39.9,31.7z M26.6,25.1c-1.8,1.6-2.9,4-2.9,6.6c0,1.8,0.5,3.5,1.5,4.9   c-0.6,0.2-1.1,0.3-1.7,0.3c-3.5,0-6.3-2.8-6.3-6.3c0-3.5,2.8-6.3,6.3-6.3C24.5,24.3,25.6,24.6,26.6,25.1z M14.6,24.3   c1.1,0,2.2,0.3,3.1,1c-1.3,1.4-2.1,3.2-2.1,5.3c0,1.6,0.5,3.1,1.3,4.3c-0.7,0.3-1.5,0.5-2.3,0.5c-3.1,0-5.5-2.5-5.5-5.5   S11.6,24.3,14.6,24.3z"></path><rect x="31.8" y="4.5" width="1.5" height="6.9"></rect><rect x="42" y="6.5" transform="matrix(0.9238 0.3828 -0.3828 0.9238 7.0674 -15.6192)" width="1.5" height="6.9"></rect><rect x="50.7" y="12.3" transform="matrix(0.7071 0.7071 -0.7071 0.7071 26.2376 -31.7959)" width="1.5" height="6.9"></rect><rect x="18.8" y="9.2" transform="matrix(0.3827 0.9239 -0.9239 0.3827 22.9111 -14.3845)" width="6.9" height="1.5"></rect><rect x="10.1" y="15" transform="matrix(0.7071 0.7071 -0.7071 0.7071 15.1111 -4.9283)" width="6.9" height="1.5"></rect></g></svg>
