<svg height='100px' width='100px'  fill="#f18f01" xmlns:rdf="http://www.w3.org/1999/02/22-rdf-syntax-ns#" xmlns="http://www.w3.org/2000/svg" xmlns:cc="http://creativecommons.org/ns#" xmlns:dc="http://purl.org/dc/elements/1.1/" version="1.1" x="0px" y="0px" viewBox="0 0 100 100"><g transform="translate(0,-952.36218)"><path style="baseline-shift:baseline;block-progression:tb;color:#000000;direction:ltr;text-indent:0;enable-background:accumulate;text-transform:none;" fill="#f18f01" d="m10.944,956.36,0,0.0312a1.0001,1.0001,0,0,0,-1,0.96875,1.0001,1.0001,0,0,0,0,0.21875v89.781a1.0001,1.0001,0,0,0,1,1h68.562a1.0001,1.0001,0,0,0,1,-1v-28.688l7.8125,7.125a1.0001,1.0001,0,1,0,1.3438,-1.4688l-7.8125-7.1875c4.8335-6.0472,4.2778-14.861-1.3438-20.281v-22.281a1.0001,1.0001,0,0,0,0,-0.0625,1.0001,1.0001,0,0,0,0,-0.0312,1.0001,1.0001,0,0,0,0,-0.0625,1.0001,1.0001,0,0,0,-0.03125,-0.125,1.0001,1.0001,0,0,0,0,-0.0625,1.0001,1.0001,0,0,0,-0.03125,-0.0312,1.0001,1.0001,0,0,0,0,-0.0625,1.0001,1.0001,0,0,0,-0.03125,-0.0312,1.0001,1.0001,0,0,0,-0.03125,-0.0625,1.0001,1.0001,0,0,0,-0.03125,-0.0312,1.0001,1.0001,0,0,0,-0.0625,-0.0937,1.0001,1.0001,0,0,0,0,-0.0312,1.0001,1.0001,0,0,0,-0.0625,-0.0937h-0.03125l-17.125-17.125a1.0001,1.0001,0,0,0,-0.25,-0.15625,1.0001,1.0001,0,0,0,-0.0625,-0.0625,1.0001,1.0001,0,0,0,-0.1875,-0.0625,1.0001,1.0001,0,0,0,-0.1875,-0.0312h-0.03125-51.406zm1,2,49.406,0,0,16.156a1.0001,1.0001,0,0,0,1,1h16.156v19.719c-3.4317-2.335-7.5762-3.067-11.469-2.2812-0.43164,0.0871-0.85745,0.1876-1.2812,0.3125-0.42483,0.12521-0.83577,0.27445-1.25,0.4375-0.41459,0.16319-0.8175,0.33027-1.2188,0.53125-0.38163,0.19115-0.75784,0.39977-1.125,0.625-0.11607,0.0708-0.22927,0.14448-0.34375,0.21875-0.25162,0.16394-0.50668,0.31967-0.75,0.5-0.06535,0.0483-0.12278,0.10673-0.1875,0.15625-0.15342,0.1176-0.31904,0.21952-0.46875,0.34375a1.0001,1.0001,0,0,0,-0.09375,0h-38.375a1.0001,1.0001,0,0,0,-0.1875,0,1.0044,1.0044,0,1,0,0.1875,2h36.5c-0.83284,1.0019-1.5289,2.0853-2.0625,3.2188-0.21106,0.4483-0.39801,0.8812-0.5625,1.3437-0.0032,0.01,0.0032,0.022,0,0.031-0.16023,0.4535-0.32185,0.9115-0.4375,1.375-0.0024,0.01,0.0024,0.022,0,0.031-0.11462,0.4635-0.21101,0.9362-0.28125,1.4063-0.06232,0.4171-0.09754,0.8301-0.125,1.25a1.0001,1.0001,0,0,0,-0.03125,0h-33a1.0001,1.0001,0,0,0,-0.1875,0,1.0044,1.0044,0,1,0,0.1875,2h33a1.0001,1.0001,0,0,0,0.03125,0c0.0869,1.3326,0.34553,2.6337,0.78125,3.9062,0.0032,0.01-0.0032,0.022,0,0.031,0.47304,1.3729,1.1551,2.696,2.0312,3.9062,0.19435,0.2686,0.41087,0.5236,0.625,0.7813h-36.469a1.0001,1.0001,0,1,0,0,2h37.719a1.0001,1.0001,0,0,0,0.5625,-0.1563c0.25969,0.2215,0.51096,0.4556,0.78125,0.6563,0.28994,0.2153,0.60535,0.4022,0.90625,0.5937,0.27725,0.1764,0.55815,0.3436,0.84375,0.5,0.22653,0.1239,0.45634,0.2325,0.6875,0.3438,0.10446,0.05,0.20715,0.1083,0.3125,0.1562,0.29803,0.135,0.60194,0.2607,0.90625,0.375,0.15695,0.059,0.31032,0.1335,0.46875,0.1875,0.07117,0.024,0.1473,0.04,0.21875,0.062,0.34063,0.1104,0.68517,0.1957,1.0312,0.2813,0.45975,0.1118,0.93994,0.2133,1.4062,0.2812,0.41067,0.06,0.8054,0.099,1.2188,0.125,0.41935,0.028,0.83016,0.038,1.25,0.031,0.35402-0.01,0.70968-0.033,1.0625-0.062,0.06122-0.01,0.12634,0.01,0.1875,0h0.09375c0.37886-0.039,0.74966-0.1202,1.125-0.1875,0.4148-0.074,0.81052-0.1725,1.2188-0.2813,1.6037-0.4274,3.1506-1.1079,4.5625-2.0625v26.156h-66.562v-88zm51.406,1.4062,13.719,13.75-13.719,0,0-13.75zm-41.5,14.875a1.0011,1.0011,0,1,0,0.09375,2h18.094a1.0001,1.0001,0,1,0,0,-2h-18.094a1.0001,1.0001,0,0,0,-0.09375,0zm0,10.656a1.0011,1.0011,0,1,0,0.09375,2h44.281a1.0001,1.0001,0,1,0,0,-2h-44.281a1.0001,1.0001,0,0,0,-0.09375,0zm47.594,9.3438c0.83481-0.0393,1.67-0.0262,2.5,0.0937,0.41499,0.06,0.80956,0.15003,1.2188,0.25,0.01008,0.002,0.02118-0.003,0.03125,0,0.39944,0.0985,0.79654,0.23817,1.1875,0.375,0.0094,0.003,0.02187-0.003,0.03125,0,0.39099,0.1378,0.77667,0.29247,1.1562,0.46875,0.01235,0.006,0.01891,0.0254,0.03125,0.0312,0.37542,0.17581,0.76364,0.34886,1.125,0.5625,0.0121,0.007,0.01916,0.024,0.03125,0.0312,0.74684,0.44797,1.4565,0.98199,2.125,1.5938,5.3088,4.8583,5.7199,13.025,0.9375,18.375a1.0001,1.0001,0,0,0,-0.3125,0.375c-0.19646,0.2043-0.41869,0.4049-0.625,0.5937a1.0001,1.0001,0,0,0,-0.03125,0.031c-0.0318,0.029-0.06173,0.065-0.09375,0.094-0.09375,0.084-0.2169,0.1383-0.3125,0.2188-0.23974,0.2015-0.46817,0.4119-0.71875,0.5937-0.28384,0.206-0.54752,0.4132-0.84375,0.5938-0.05966,0.036-0.12738,0.058-0.1875,0.094-0.01256,0.01-0.01867,0.024-0.03125,0.031-0.02007,0.012-0.04238,0.02-0.0625,0.031-0.35271,0.2032-0.72702,0.3946-1.0938,0.5625-0.38756,0.1775-0.7873,0.3308-1.1875,0.4688-0.4002,0.1379-0.80901,0.2455-1.2188,0.3437-0.22994,0.055-0.45532,0.1135-0.6875,0.1563-0.17934,0.033-0.35087,0.068-0.53125,0.094-0.04024,0.01-0.08471-0.01-0.125,0-0.79282,0.1039-1.6076,0.1348-2.4062,0.094-0.83941-0.043-1.6784-0.1708-2.5-0.375-0.30499-0.076-0.60606-0.1519-0.90625-0.25-0.14793-0.048-0.29096-0.1025-0.4375-0.1563-0.36376-0.1341-0.70896-0.2697-1.0625-0.4375-0.05125-0.024-0.10525-0.038-0.15625-0.062-0.3239-0.159-0.6557-0.3436-0.96875-0.5312-0.03838-0.023-0.0868-0.039-0.125-0.062-0.2323-0.1426-0.46224-0.3102-0.6875-0.4688-0.11382-0.08-0.23187-0.1661-0.34375-0.25-0.33444-0.2519-0.65339-0.5239-0.96875-0.8125-0.34525-0.3159-0.66516-0.6262-0.96875-0.9687-0.05483-0.062-0.10278-0.1253-0.15625-0.1875-0.23062-0.2701-0.45097-0.5597-0.65625-0.8438-0.0985-0.1357-0.18859-0.2675-0.28125-0.4062-0.38374-0.5761-0.71676-1.1627-1-1.7813-0.0056-0.012-0.02566-0.019-0.03125-0.031-0.17119-0.3746-0.30347-0.7699-0.4375-1.1563-0.13776-0.3998-0.27692-0.8094-0.375-1.2187-0.19615-0.8187-0.30711-1.6618-0.34375-2.5-0.10534-2.5024,0.50732-5.0447,1.8438-7.2813,0.0044-0.01-0.0044-0.024,0-0.031,0.22004-0.3665,0.49081-0.7135,0.75-1.0625,0.0048-0.006-0.0048-0.0248,0-0.0312,0.26512-0.3555,0.5378-0.69707,0.84375-1.0312,0.30085-0.32861,0.61279-0.64659,0.9375-0.9375,0.32947-0.2941,0.68004-0.55721,1.0312-0.8125,0.69685-0.50664,1.4551-0.95983,2.2188-1.3125,0.38551-0.17728,0.78942-0.33068,1.1875-0.46875,0.79615-0.27614,1.6095-0.47523,2.4375-0.59375,0.41402-0.0593,0.8326-0.0741,1.25-0.0937zm9.9375,7.7813a1.0001,1.0001,0,0,0,-0.5,0.25l-12.594,11.156-3.9375-6.375a1.0001,1.0001,0,1,0,-1.6875,1.0313l4.5312,7.4062a1.0001,1.0001,0,0,0,1.5312,0.25l13.469-11.969a1.0001,1.0001,0,0,0,-0.8125,-1.75zm-50.969,25.938a1.0001,1.0001,0,0,0,-0.71875,0.375l-6.9062,8.5937a1.0005,1.0005,0,1,0,1.5625,1.25l5.1875-6.4375,0.09375,5a1.0001,1.0001,0,0,0,1.8125,0.5625l2.3438-3.1562,1.8438,4.1562a1.0001,1.0001,0,0,0,1.2812,0.5313l8.1562-3.3438,0.65625,1.75a1.0001,1.0001,0,0,0,1.0625,0.625l14.156-1.8437a1.0001,1.0001,0,1,0,-0.25,-1.9688l-13.375,1.75-0.75-1.9687a1.0001,1.0001,0,0,0,-1.3125,-0.5625l-8.1875,3.3125-2.125-4.8125a1.0001,1.0001,0,0,0,-1.7188,-0.1875l-1.6562,2.2187-0.09375-4.8437a1.0001,1.0001,0,0,0,-1.0625,-1z"></path></g></svg>
