<svg height='100px' width='100px'  fill="#ffffff" xmlns:x="http://ns.adobe.com/Extensibility/1.0/" xmlns:i="http://ns.adobe.com/AdobeIllustrator/10.0/" xmlns:graph="http://ns.adobe.com/Graphs/1.0/" xmlns="http://www.w3.org/2000/svg" xmlns:xlink="http://www.w3.org/1999/xlink" version="1.1" x="0px" y="0px" viewBox="0 0 100 100" style="enable-background:new 0 0 100 100;" xml:space="preserve"><g><g i:extraneous="self"><g><path d="M91.6,24.6l-1.9-1.4c-0.6-0.4-1.4-0.3-1.8,0.3l-1.6,2.3l-2.1-1.6c0.5-1.7,0-3.6-1.6-4.6c-1.5-1-3.3-0.9-4.6,0.1l-1.6-1.2     l1.6-2.3c0.4-0.6,0.3-1.4-0.3-1.8l-1.9-1.4c-0.6-0.4-1.4-0.3-1.8,0.3l-4.5,6.2c-0.4,0.6-0.3,1.4,0.3,1.8l1.9,1.4     c0.6,0.4,1.4,0.3,1.8-0.3l1.5-2.1l1.5,1.1c-2.7,3.9-5.8,8.3-7.5,10.3c-0.8-0.6-1.9-1.4-2.7-2c-3.2-2.5-6.9-5.4-10.8-5.4h-11     c-3.9,0-7.6,2.9-10.8,5.4c-0.8,0.6-1.9,1.5-2.7,2c-1.7-2.1-4.8-6.4-7.5-10.3l1.5-1.1l1.5,2.1c0.4,0.6,1.2,0.7,1.8,0.3l1.9-1.4     c0.6-0.4,0.7-1.2,0.3-1.8L26,13.4c-0.4-0.6-1.2-0.7-1.8-0.3l-1.9,1.4c-0.6,0.4-0.7,1.2-0.3,1.8l1.6,2.3L22,19.7     c-1.3-1-3.2-1.1-4.6-0.1c-1.5,1-2.1,2.9-1.6,4.6l-2.1,1.6l-1.6-2.3c-0.4-0.6-1.2-0.7-1.8-0.3l-1.9,1.4c-0.6,0.4-0.7,1.2-0.3,1.8     l4.5,6.2c0.4,0.6,1.2,0.7,1.8,0.3l1.9-1.4c0.6-0.4,0.7-1.2,0.3-1.8L15,27.6l1.9-1.4c3.1,4.6,8,11.6,10.2,13.2c1,0.7,2.1,1,3.1,1     c2.8,0,5.7-2.2,8.4-4.3c0.5-0.4,1.2-0.9,1.9-1.5L41,55.8l-4.5,36.4c-0.3,2.6,1.5,5,4.1,5.3c2.6,0.3,5-1.5,5.3-4.1L50,60.3     l4.1,33.1c0.3,2.4,2.3,4.1,4.7,4.1c0.2,0,0.4,0,0.6,0c2.6-0.3,4.4-2.7,4.1-5.3L59,55.8l0.4-21.1c0.7,0.5,1.4,1.1,1.9,1.5     c2.6,2,5.5,4.3,8.4,4.3c1.1,0,2.1-0.3,3.1-1c2.2-1.6,7.1-8.5,10.2-13.2l1.9,1.4l-1.5,2.1c-0.4,0.6-0.3,1.4,0.3,1.8l1.9,1.4     c0.6,0.4,1.4,0.3,1.8-0.3l4.5-6.2C92.3,25.8,92.2,25,91.6,24.6z"></path><circle cx="50" cy="12" r="9.5"></circle></g></g></g></svg>