<svg height='100px' width='100px'  fill="#f18f01" xmlns="http://www.w3.org/2000/svg" viewBox="0 0 100 100" x="0px" y="0px"><title>Icone_Varie_05</title><g data-name="Layer 1"><path d="M90.0213,66.82526l-.03265.00171L84.50812,44.38281a13.11245,13.11245,0,0,0,8.8764-3.79107l-1.39178-4.2323A2.67459,2.67459,0,0,0,89.443,34.69366c-.54229,0-.59265.01435-.91522.01435H78.8291a3.606,3.606,0,0,0-.38043.02313L55.88739,17.5282a4.97769,4.97769,0,1,0-9.5257-2.0221,5.00868,5.00868,0,0,0,.0423.61786L24.06836,24.46918a2.714,2.714,0,0,0-2.4126-1.37592c-.5423,0-.59265.01428-.91522.01428H11.04187A2.52529,2.52529,0,0,0,8.49194,24.759l-1.3916,4.232a13.12274,13.12274,0,0,0,7.27783,3.65356L9.92865,52.2746A4.97757,4.97757,0,1,0,12.494,61.5423L33.75769,83.77258,32.76,86.80688a13.15295,13.15295,0,0,0,18.49689.00037l-.74073-2.25256L85.69733,74.26581a4.97742,4.97742,0,1,0,4.324-7.44055ZM54.49554,19.35681,76.41229,36.0683a2.7477,2.7477,0,0,0-.13312.29114l-1.3916,4.23193a13.23576,13.23576,0,0,0,1.06952.94488L65.43658,48.61737a4.955,4.955,0,0,0-3.37274-1.324c-.085,0-.16772.00855-.25158.01276L53.799,19.83209A4.99317,4.99317,0,0,0,54.49554,19.35681ZM25.59729,28.99133,24.824,26.64,47.20483,18.278a4.97314,4.97314,0,0,0,4.13562,2.20691c.085,0,.16779-.00854.25171-.01275l8.01319,27.474a4.994,4.994,0,0,0-1.30316,1.0708l-34.983-18.22644A13.22658,13.22658,0,0,0,25.59729,28.99133ZM12.16919,52.785,16.703,32.78284a13.11,13.11,0,0,0,4.03791-.74482L57.24127,51.05487a4.95239,4.95239,0,0,0-.10388.53388l-42.4491,4.05773A4.98646,4.98646,0,0,0,12.16919,52.785ZM85.05548,72.05933,49.77191,82.37805a2.69786,2.69786,0,0,0-2.45654-1.46887c-.54236,0-.59265.01434-.91528.01434H36.70148a2.74587,2.74587,0,0,0-1.87372.64344L14.15552,59.9549a4.94424,4.94424,0,0,0,.74963-2.02082l42.4491-4.05762a4.95552,4.95552,0,0,0,.64709,1.2674L46.09521,68.65271a6.35977,6.35977,0,1,0,1.49018,1.78467L59.72321,56.66559a4.96381,4.96381,0,0,0,5.64935-.68054L85.39465,69.973a4.95777,4.95777,0,0,0-.35211,1.831C85.04254,71.8902,85.05115,71.97418,85.05548,72.05933Zm1.657-3.96827-20.022-13.988a4.92394,4.92394,0,0,0,.02991-3.58014L78.04858,42.898a13.05548,13.05548,0,0,0,4.05811,1.33752l5.65015,23.13831A4.981,4.981,0,0,0,86.71252,68.09106Z"></path><circle cx="16.41026" cy="15.72304" r="6.3307" transform="translate(-1.20001 30.08928) rotate(-82.98194)"></circle><circle cx="84.19749" cy="27.3235" r="6.3307" transform="translate(46.79128 107.55172) rotate(-82.98194)"></circle></g></svg>