<svg height='100px' width='100px'  fill="#ffffff" xmlns="http://www.w3.org/2000/svg" data-name="Layer 1" viewBox="0 0 100 100" x="0px" y="0px"><title>all 19</title><path d="M83.14,60.53A4,4,0,0,0,84,54.86a6.08,6.08,0,0,0-.33-.77l-8.9-16.78a6,6,0,0,0-1.17-1.52,4,4,0,0,0-1-.77l-.4-.21h0a6,6,0,0,0-2.73-.67H30.53a6,6,0,0,0-.7,0,3.93,3.93,0,0,0-4.24,2.56,6,6,0,0,0-.36.58l-8.9,16.78a6.08,6.08,0,0,0-.33.77,4,4,0,0,0,.86,5.66,6.07,6.07,0,0,0,.52.62L47,90.8l.05,0,.1.1h0a4,4,0,0,0,.39.35l.14.11a4,4,0,0,0,.65.39h0a4,4,0,0,0,.69.23l.19,0a4,4,0,0,0,.77.09h0A3.35,3.35,0,0,0,51.23,92c.1,0,.19,0,.29-.09l.05,0A4,4,0,0,0,52,91.6l.24-.15a4,4,0,0,0,.41-.34l.2-.18L53,90.8,82.61,61.14A6.09,6.09,0,0,0,83.14,60.53Zm-54.26-13,2.38,5.76H25.83Zm28,13.76L50,77.71,43.21,61.27Zm-11.06-8,4.22-7,4.22,7ZM61.55,50l-4.7-7.83h8ZM38.5,49.86l-3.19-7.73h7.84ZM34.56,61.27l4.05,9.82-9.8-9.82Zm30.95,0h5.68L61.44,71Zm3.33-8,2.35-5.64,3,5.64Z"></path><path d="M46,11.82V26.49a4,4,0,0,0,8,0V11.82a4,4,0,1,0-8,0Z"></path><path d="M94,21.14a4,4,0,0,0-5.66,0L78,31.51a4,4,0,1,0,5.66,5.66L94,26.8A4,4,0,0,0,94,21.14Z"></path><path d="M16.36,37.17A4,4,0,1,0,22,31.51L11.64,21.14A4,4,0,0,0,6,26.8Z"></path></svg>