<svg height='100px' width='100px'  fill="#ffffff" xmlns="http://www.w3.org/2000/svg" xmlns:xlink="http://www.w3.org/1999/xlink" version="1.1" x="0px" y="0px" viewBox="0 0 100 100" enable-background="new 0 0 100 100" xml:space="preserve"><path fill="#ffffff" stroke="#ffffff" stroke-width="2" stroke-miterlimit="10" d="M-265.4,161.1l-3.4,4.2c-0.1,0.1-0.2,0.2-0.3,0.2  h-21.4c-0.2,0-0.4-0.2-0.4-0.4c0.1-1.1,0.1-2.3,0.1-3.4c0-0.3,0-0.5,0-0.8c0-0.2,0.2-0.4,0.4-0.4h24.7  C-265.3,160.5-265.2,160.9-265.4,161.1z"></path><path fill="#ffffff" stroke="#ffffff" stroke-width="2" stroke-miterlimit="10" d="M-275.7,173.7h-16c-0.3,0-0.6-0.3-0.5-0.6  c0.3-1.3,0.6-2.6,0.8-4c0-0.2,0.2-0.4,0.5-0.4h18.3c0.4,0,0.7,0.5,0.4,0.8l-3.2,4C-275.4,173.7-275.6,173.7-275.7,173.7z"></path><path fill="#ffffff" stroke="#ffffff" stroke-width="2" stroke-miterlimit="10" d="M-282.1,181.7H-295c-0.3,0-0.5-0.3-0.3-0.6  c0.7-1.3,1.4-2.7,1.9-4.2c0.1-0.2,0.2-0.3,0.4-0.3h14.4c0.3,0,0.5,0.4,0.3,0.6l-3.4,4.2C-281.8,181.7-281.9,181.7-282.1,181.7z"></path><path fill="#ffffff" stroke="#ffffff" stroke-width="2" stroke-linecap="round" stroke-linejoin="round" stroke-miterlimit="10" d="  M-296.2,157.8c-0.4,0-0.7,0.1-1.1,0.1c-6.2,0-11.5-2.2-12.8-7.8c0,0-0.1,0-0.1,0c0,0-0.1,0-0.1,0c-1.2,5.7-6.6,7.8-12.8,7.8  c-0.4,0-0.7,0-1.1-0.1c-0.5,1.7-0.8,3.5-0.8,5.4c-0.1,12.5,6.6,23.1,14.8,23.1c8.2,0,14.7-10.6,14.8-23.1  C-295.3,161.3-295.7,159.5-296.2,157.8z"></path><path fill="#ffffff" stroke="#ffffff" stroke-width="2" stroke-miterlimit="10" d="M-355,161.1l3.4,4.2c0.1,0.1,0.2,0.2,0.3,0.2h21.4  c0.2,0,0.4-0.2,0.4-0.4c-0.1-1.1-0.1-2.3-0.1-3.4c0-0.3,0-0.5,0-0.8c0-0.2-0.2-0.4-0.4-0.4h-24.7C-355,160.5-355.2,160.9-355,161.1z  "></path><path fill="#ffffff" stroke="#ffffff" stroke-width="2" stroke-miterlimit="10" d="M-344.6,173.7h16c0.3,0,0.6-0.3,0.5-0.6  c-0.3-1.3-0.6-2.6-0.8-4c0-0.2-0.2-0.4-0.5-0.4h-18.3c-0.4,0-0.7,0.5-0.4,0.8l3.2,4C-344.9,173.7-344.8,173.7-344.6,173.7z"></path><path fill="#ffffff" stroke="#ffffff" stroke-width="2" stroke-miterlimit="10" d="M-338.3,181.7h12.9c0.3,0,0.5-0.3,0.3-0.6  c-0.7-1.3-1.4-2.7-1.9-4.2c-0.1-0.2-0.2-0.3-0.4-0.3h-14.4c-0.3,0-0.5,0.4-0.3,0.6l3.4,4.2C-338.5,181.7-338.4,181.7-338.3,181.7z"></path><polygon fill="#ffffff" stroke="#ffffff" stroke-width="2" stroke-linecap="round" stroke-linejoin="round" stroke-miterlimit="10" points="  -302,168 -302,172 -308,172 -308,178 -312,178 -312,172 -318,172 -318,168 -312,168 -312,162 -308,162 -308,168 "></polygon><path fill="#ffffff" d="M49.8,20.5l2.9,5.9c0.1,0.2,0.2,0.3,0.4,0.3l6.5,1c0.5,0.1,0.7,0.6,0.3,1l-4.7,4.6c-0.1,0.1-0.2,0.3-0.2,0.5  l1.1,6.5c0.1,0.5-0.4,0.8-0.8,0.6l-5.9-3.1c-0.2-0.1-0.4-0.1-0.5,0l-5.9,3.1c-0.4,0.2-0.9-0.1-0.8-0.6l1.1-6.5c0-0.2,0-0.4-0.2-0.5  l-4.7-4.6c-0.3-0.3-0.2-0.9,0.3-1l6.5-1c0.2,0,0.3-0.1,0.4-0.3l2.9-5.9C48.9,20.1,49.6,20.1,49.8,20.5z"></path><path fill="#ffffff" d="M68.8,35.4l2.9,5.9c0.1,0.2,0.2,0.3,0.4,0.3l6.5,1c0.5,0.1,0.7,0.6,0.3,1l-4.7,4.6c-0.1,0.1-0.2,0.3-0.2,0.5  l1.1,6.5c0.1,0.5-0.4,0.8-0.8,0.6l-5.9-3.1c-0.2-0.1-0.4-0.1-0.5,0l-5.9,3.1c-0.4,0.2-0.9-0.1-0.8-0.6l1.1-6.5c0-0.2,0-0.4-0.2-0.5  l-4.7-4.6c-0.3-0.3-0.2-0.9,0.3-1l6.5-1c0.2,0,0.3-0.1,0.4-0.3l2.9-5.9C67.9,34.9,68.6,34.9,68.8,35.4z"></path><path fill="#ffffff" d="M30.8,35.4l2.9,5.9c0.1,0.2,0.2,0.3,0.4,0.3l6.5,1c0.5,0.1,0.7,0.6,0.3,1l-4.7,4.6c-0.1,0.1-0.2,0.3-0.2,0.5  l1.1,6.5c0.1,0.5-0.4,0.8-0.8,0.6l-5.9-3.1c-0.2-0.1-0.4-0.1-0.5,0l-5.9,3.1c-0.4,0.2-0.9-0.1-0.8-0.6l1.1-6.5c0-0.2,0-0.4-0.2-0.5  l-4.7-4.6c-0.3-0.3-0.2-0.9,0.3-1l6.5-1c0.2,0,0.3-0.1,0.4-0.3l2.9-5.9C29.9,34.9,30.6,34.9,30.8,35.4z"></path><path fill="#ffffff" d="M37.7,58.4l2.9,5.9c0.1,0.2,0.2,0.3,0.4,0.3l6.5,1c0.5,0.1,0.7,0.6,0.3,1l-4.7,4.6c-0.1,0.1-0.2,0.3-0.2,0.5  l1.1,6.5c0.1,0.5-0.4,0.8-0.8,0.6l-5.9-3.1c-0.2-0.1-0.4-0.1-0.5,0l-5.9,3.1c-0.4,0.2-0.9-0.1-0.8-0.6l1.1-6.5c0-0.2,0-0.4-0.2-0.5  l-4.7-4.6c-0.3-0.3-0.2-0.9,0.3-1l6.5-1c0.2,0,0.3-0.1,0.4-0.3l2.9-5.9C36.9,57.9,37.5,57.9,37.7,58.4z"></path><path fill="#ffffff" d="M61.9,58.4l2.9,5.9c0.1,0.2,0.2,0.3,0.4,0.3l6.5,1c0.5,0.1,0.7,0.6,0.3,1l-4.7,4.6c-0.1,0.1-0.2,0.3-0.2,0.5  l1.1,6.5c0.1,0.5-0.4,0.8-0.8,0.6l-5.9-3.1c-0.2-0.1-0.4-0.1-0.5,0l-5.9,3.1c-0.4,0.2-0.9-0.1-0.8-0.6l1.1-6.5c0-0.2,0-0.4-0.2-0.5  l-4.7-4.6c-0.3-0.3-0.2-0.9,0.3-1l6.5-1c0.2,0,0.3-0.1,0.4-0.3l2.9-5.9C61.1,57.9,61.7,57.9,61.9,58.4z"></path></svg>