<svg height='100px' width='100px'  fill="#f18f01" xmlns="http://www.w3.org/2000/svg" xmlns:xlink="http://www.w3.org/1999/xlink" version="1.1" x="0px" y="0px" viewBox="0 0 65 65" enable-background="new 0 0 65 65" xml:space="preserve"><g><rect x="3.2" y="35.7" width="1.5" height="1.5"></rect><rect x="16" y="35.7" width="1.5" height="1.5"></rect><rect x="20.3" y="35.7" width="1.5" height="1.5"></rect><rect x="11.7" y="35.7" width="1.5" height="1.5"></rect><rect x="7.5" y="35.7" width="1.5" height="1.5"></rect><rect x="24.5" y="35.7" width="1.5" height="1.5"></rect><rect x="28.8" y="35.7" width="1.5" height="1.5"></rect><rect x="33.1" y="35.7" width="1.5" height="1.5"></rect><path d="M24.5,12.5H5.8V27h18.7V12.5z M23,25.5H7.3V14H23V25.5z"></path><rect x="31.6" y="13.6" width="23.5" height="1.5"></rect><rect x="35.2" y="19" width="19.8" height="1.5"></rect><rect x="44.3" y="24.4" width="10.8" height="1.5"></rect><path d="M64.3,35.5c-1-0.1-1.8-0.3-2.7-0.4V9.4c0-1.5-1.3-2.8-2.8-2.8h-56C1.3,6.6,0,7.9,0,9.4v31.8C0,42.8,1.3,44,2.8,44h35.9   c1.8,5.1,5.3,11.4,11.9,14.3l0.3,0.1l0.3-0.1c12.1-5,13.7-21.3,13.8-22l0.1-0.7L64.3,35.5z M2.8,42.5c-0.7,0-1.3-0.6-1.3-1.3V9.4   c0-0.7,0.6-1.3,1.3-1.3h56c0.7,0,1.3,0.6,1.3,1.3v25.3c-6.1-1.6-8.7-4.3-8.7-4.3l-0.6-0.6l-0.6,0.6c0,0-3.7,4-12.9,5.1l-0.7,0.1   l0.1,0.7c0,0.3,0.3,2.9,1.4,6.2H2.8z M50.9,56.8c-9.4-4.4-12-16.8-12.5-19.9c7.3-1.1,11.2-3.8,12.5-5c1.3,1.2,5.2,3.9,12.5,5   C62.9,40,60.5,52.6,50.9,56.8z"></path><path d="M47.9,39.7v1.6h-0.3c-1,0-1.7,0.8-1.7,1.7v4.1c0,1,0.8,1.7,1.7,1.7h6.5c1,0,1.7-0.8,1.7-1.7v-4.1c0-1-0.8-1.7-1.7-1.7h-0.3   v-1.6c0-1.6-1.3-2.9-2.9-2.9S47.9,38.1,47.9,39.7z M54.3,43.1v4.1c0,0.1-0.1,0.2-0.2,0.2h-6.5c-0.1,0-0.2-0.1-0.2-0.2v-4.1   c0-0.1,0.1-0.2,0.2-0.2h6.5C54.2,42.8,54.3,43,54.3,43.1z M52.3,39.7v1.6h-2.9v-1.6c0-0.8,0.7-1.5,1.5-1.5   C51.7,38.3,52.3,38.9,52.3,39.7z"></path></g></svg>
