<svg height='100px' width='100px'  fill="#ffffff" xmlns="http://www.w3.org/2000/svg" xmlns:xlink="http://www.w3.org/1999/xlink" version="1.1" x="0px" y="0px" viewBox="0 0 64 64" enable-background="new 0 0 64 64" xml:space="preserve"><g><g><path d="M40,23v27h9V24c0-0.5499878-0.4500122-1-1-1H40z M44,47c0,0.5499878-0.4500122,1-1,1s-1-0.4500122-1-1v-2.8599854    c0-0.5500488,0.4500122-1,1-1s1,0.4499512,1,1V47z M44,41.289978c0,0.5499878-0.4500122,1-1,1s-1-0.4500122-1-1v-2.8599854    c0-0.5499878,0.4500122-1,1-1s1,0.4500122,1,1V41.289978z M44,35.5700073c0,0.5499878-0.4500122,1-1,1s-1-0.4500122-1-1    v-2.8600464c0-0.5499878,0.4500122-1,1-1s1,0.4500122,1,1V35.5700073z M44,29.8599854c0,0.5499878-0.4500122,1-1,1    s-1-0.4500122-1-1V27c0-0.5499878,0.4500122-1,1-1s1,0.4500122,1,1V29.8599854z"></path><path d="M9,24v26h9V23h-8C9.4500122,23,9,23.4500122,9,24z M14,27c0-0.5499878,0.4500122-1,1-1s1,0.4500122,1,1v2.8599854    c0,0.5499878-0.4500122,1-1,1s-1-0.4500122-1-1V27z M14,32.7099609c0-0.5499878,0.4500122-1,1-1s1,0.4500122,1,1v2.8600464    c0,0.5499878-0.4500122,1-1,1s-1-0.4500122-1-1V32.7099609z M14,38.4299927c0-0.5499878,0.4500122-1,1-1s1,0.4500122,1,1    v2.8599854c0,0.5499878-0.4500122,1-1,1s-1-0.4500122-1-1V38.4299927z M14,44.1400146c0-0.5500488,0.4500122-1,1-1    s1,0.4499512,1,1V47c0,0.5499878-0.4500122,1-1,1s-1-0.4500122-1-1V44.1400146z"></path><path d="M52,51H6c-0.5522461,0-1,0.4472656-1,1v4c0,0.5527344,0.4477539,1,1,1h46c0.5522461,0,1-0.4472656,1-1v-4    C53,51.4472656,52.5522461,51,52,51z"></path><path d="M39,50V16c0-0.5499878-0.4500122-1-1-1H20c-0.5499878,0-1,0.4500122-1,1v34h6v-6c0-0.5527344,0.4477539-1,1-1h6    c0.5522461,0,1,0.4472656,1,1v6H39z M26,39c0,0.5499878-0.4500122,1-1,1s-1-0.4500122-1-1v-2.8599854c0-0.5500488,0.4500122-1,1-1    s1,0.4499512,1,1V39z M26,33.289978c0,0.5499878-0.4500122,1-1,1s-1-0.4500122-1-1v-2.8599854c0-0.5499878,0.4500122-1,1-1    s1,0.4500122,1,1V33.289978z M26,27.5700073c0,0.5499878-0.4500122,1-1,1s-1-0.4500122-1-1v-2.8600464    c0-0.5499878,0.4500122-1,1-1s1,0.4500122,1,1V27.5700073z M26,21.8599854c0,0.5499878-0.4500122,1-1,1s-1-0.4500122-1-1V19    c0-0.5499878,0.4500122-1,1-1s1,0.4500122,1,1V21.8599854z M30,39c0,0.5499878-0.4500122,1-1,1s-1-0.4500122-1-1v-2.8599854    c0-0.5500488,0.4500122-1,1-1s1,0.4499512,1,1V39z M30,33.289978c0,0.5499878-0.4500122,1-1,1s-1-0.4500122-1-1v-2.8599854    c0-0.5499878,0.4500122-1,1-1s1,0.4500122,1,1V33.289978z M30,27.5700073c0,0.5499878-0.4500122,1-1,1s-1-0.4500122-1-1    v-2.8600464c0-0.5499878,0.4500122-1,1-1s1,0.4500122,1,1V27.5700073z M30,21.8599854c0,0.5499878-0.4500122,1-1,1    s-1-0.4500122-1-1V19c0-0.5499878,0.4500122-1,1-1s1,0.4500122,1,1V21.8599854z M32,19c0-0.5499878,0.4500122-1,1-1    s1,0.4500122,1,1v2.8599854c0,0.5499878-0.4500122,1-1,1s-1-0.4500122-1-1V19z M32,24.7099609c0-0.5499878,0.4500122-1,1-1    s1,0.4500122,1,1v2.8600464c0,0.5499878-0.4500122,1-1,1s-1-0.4500122-1-1V24.7099609z M32,30.4299927    c0-0.5499878,0.4500122-1,1-1s1,0.4500122,1,1v2.8599854c0,0.5499878-0.4500122,1-1,1s-1-0.4500122-1-1V30.4299927z M32,39    v-2.8599854c0-0.5500488,0.4500122-1,1-1s1,0.4499512,1,1V39c0,0.5499878-0.4500122,1-1,1S32,39.5499878,32,39z"></path><path d="M17,17h1v-1c0-1.1000366,0.9000244-2,2-2h18c1.0999756,0,2,0.8999634,2,2v1h1c0.5499878,0,1-0.4500122,1-1v-4    c0-0.5499878-0.4500122-1-1-1H17c-0.5499878,0-1,0.4500122-1,1v4C16,16.5499878,16.4500122,17,17,17z"></path><path d="M18,19H6c-0.5499878,0-1,0.4500122-1,1v4c0,0.5499878,0.4500122,1,1,1h2v-1c0-1.1000366,0.9000244-2,2-2h8V19z"></path><path d="M40,22h8c1.0999756,0,2,0.8999634,2,2v1h2c0.5499878,0,1-0.4500122,1-1v-4c0-0.5499878-0.4500122-1-1-1H40V22z"></path><path d="M8,15c0,0.5527344,0.4477539,1,1,1s1-0.4472656,1-1c0-1.6542969,1.3457031-3,3-3c0.5522461,0,1-0.4472656,1-1    s-0.4477539-1-1-1c-1.6542969,0-3-1.3457031-3-3c0-0.5527344-0.4477539-1-1-1S8,6.4472656,8,7c0,1.6542969-1.3457031,3-3,3    c-0.5522461,0-1,0.4472656-1,1s0.4477539,1,1,1C6.6542969,12,8,13.3457031,8,15z M9,9.9970703    C9.2851563,10.3769531,9.6235352,10.7148438,10.0029297,11C9.6235352,11.2851563,9.2851563,11.6230469,9,12.0029297    C8.7148438,11.6230469,8.3764648,11.2851563,7.9970703,11C8.3764648,10.7148438,8.7148438,10.3769531,9,9.9970703z"></path><path d="M60,44c-1.6542969,0-3-1.3457031-3-3c0-0.5527344-0.4477539-1-1-1s-1,0.4472656-1,1c0,1.6542969-1.3457031,3-3,3    c-0.5522461,0-1,0.4472656-1,1s0.4477539,1,1,1c1.6542969,0,3,1.3457031,3,3c0,0.5527344,0.4477539,1,1,1s1-0.4472656,1-1    c0-1.6542969,1.3457031-3,3-3c0.5522461,0,1-0.4472656,1-1S60.5522461,44,60,44z M56,46.0029297    C55.7148438,45.6230469,55.3764648,45.2851563,54.9970703,45C55.3764648,44.7148438,55.7148438,44.3769531,56,43.9970703    C56.2851563,44.3769531,56.6235352,44.7148438,57.0029297,45C56.6235352,45.2851563,56.2851563,45.6230469,56,46.0029297z"></path></g></g></svg>