<svg height='100px' width='100px'  fill="#f18f01" xmlns:dc="http://purl.org/dc/elements/1.1/" xmlns:cc="http://creativecommons.org/ns#" xmlns:rdf="http://www.w3.org/1999/02/22-rdf-syntax-ns#" xmlns:svg="http://www.w3.org/2000/svg" xmlns="http://www.w3.org/2000/svg" xmlns:sodipodi="http://sodipodi.sourceforge.net/DTD/sodipodi-0.dtd" xmlns:inkscape="http://www.inkscape.org/namespaces/inkscape" viewBox="0 0 100 100" version="1.1" x="0px" y="0px"><g transform="translate(0,-952.36216)"><path style="color:#000000;clip-rule:nonzero;display:inline;overflow:visible;visibility:visible;opacity:1;isolation:auto;mix-blend-mode:normal;color-interpolation:sRGB;color-interpolation-filters:linearRGB;solid-color:#000000;solid-opacity:1;fill:#f18f01;fill-opacity:1;fill-rule:nonzero;stroke:none;stroke-width:1;stroke-linecap:round;stroke-linejoin:round;stroke-miterlimit:4;stroke-dasharray:none;stroke-dashoffset:0;stroke-opacity:1;marker:none;color-rendering:auto;image-rendering:auto;shape-rendering:auto;text-rendering:auto;enable-background:accumulate" d="m 49.999182,957.36216 a 3.8798152,3.8798152 0 0 0 -3.875326,3.87544 3.8798152,3.8798152 0 0 0 3.875326,3.88318 3.8798152,3.8798152 0 0 0 3.883258,-3.88359 3.8798152,3.8798152 0 0 0 -3.883258,-3.87503 z m -4e-6,9.07949 c -1.238298,0 -2.460812,0.0611 -3.668419,0.18334 -1.207003,0.12223 -2.395208,0.30965 -3.564989,0.54921 -1.16959,0.24038 -2.320312,0.53292 -3.445117,0.88493 a 2.0374911,2.0374911 0 0 0 1.209558,3.89133 c 0.996759,-0.30965 2.011144,-0.57692 3.047901,-0.78715 1.036039,-0.21186 2.095791,-0.37076 3.16711,-0.4775 0.400499,-0.0408 0.813303,-0.0408 1.217552,-0.0652 l 4e-6,3.85955 -5.928371,7.51171 a 2.0373337,2.0373337 0 1 0 3.19893,2.52237 l 4.766571,-6.03968 4.766562,6.03968 a 2.0373337,2.0373337 0 1 0 3.19893,-2.52237 l -5.92836,-7.51171 -10e-6,-3.85955 c 0.40739,0.0407 0.8233,0.0407 1.22542,0.0652 1.07112,0.11 2.12325,0.26482 3.15916,0.4775 1.03628,0.21186 2.05094,0.47791 3.04774,0.78796 a 2.0374867,2.0374867 0 0 0 1.20954,-3.89132 c -1.12536,-0.35039 -2.26805,-0.64414 -3.43766,-0.8833 -1.16997,-0.24038 -2.3658,-0.42658 -3.57293,-0.54921 -1.20762,-0.12223 -2.430164,-0.18335 -3.668425,-0.18335 z m -22.941596,8.96011 a 2.0373337,2.0373337 0 0 0 -1.424394,0.55736 c -0.868428,0.79937 -1.698656,1.64519 -2.490709,2.53827 -0.792223,0.89348 -1.550199,1.83301 -2.259931,2.81694 -0.709911,0.98434 -1.378151,2.01513 -1.997341,3.08747 -0.618945,1.07235 -1.173537,2.16303 -1.671094,3.27082 -0.497039,1.10616 -0.935499,2.23229 -1.312991,3.36575 -0.374099,1.12979 -0.695037,2.2714 -0.954901,3.42197 a 2.0395614,2.0395614 0 1 0 3.978751,0.89919 c 0.22934,-1.01531 0.511002,-2.02695 0.843515,-3.03207 l -3.47e-4,0 c 0.333356,-1.00023 0.721389,-1.99557 1.16178,-2.97625 0.165333,-0.36668 0.376054,-0.72521 0.557049,-1.08986 l 3.342168,1.9255 3.541082,8.89655 a 2.0392097,2.0392097 0 1 0 3.787807,-1.51196 l -2.856757,-7.14584 7.62332,-1.10616 a 2.0373337,2.0373337 0 0 0 -0.246697,-4.05797 2.0373337,2.0373337 0 0 0 -0.342156,0.0408 l -9.469485,1.37628 -3.342148,-1.9255 c 0.225999,-0.33816 0.432075,-0.69873 0.668431,-1.02671 0.629815,-0.87311 1.295757,-1.70752 1.997341,-2.49834 0.702072,-0.79162 1.437818,-1.53844 2.20424,-2.2441 a 2.0373337,2.0373337 0 0 0 -1.336863,-3.55723 z m 45.827478,0 a 2.0373337,2.0373337 0 0 0 -1.28118,3.54909 c 0.76628,0.7077 1.50659,1.4594 2.21221,2.25184 0.70175,0.79163 1.36748,1.62563 1.99736,2.49875 0.23577,0.32594 0.43616,0.68855 0.66049,1.02671 l -3.33423,1.9255 -9.47742,-1.3767 a 2.0373337,2.0373337 0 0 0 -0.40575,-0.0407 2.0373337,2.0373337 0 0 0 -0.17508,4.05837 l 7.61536,1.10616 -2.84881,7.14585 a 2.0373337,2.0373337 0 1 0 3.77983,1.51196 l 3.54112,-8.88841 3.34217,-1.9259 c 0.17979,0.36261 0.39235,0.71625 0.55702,1.08212 0.44135,0.98231 0.8275,1.98091 1.16177,2.9844 0.3345,1.00349 0.62158,2.0135 0.8516,3.03165 a 2.0373337,2.0373337 0 1 0 3.97084,-0.89919 c -0.25957,-1.14975 -0.57751,-2.28891 -0.95482,-3.42156 -0.37752,-1.13305 -0.81562,-2.25958 -1.31301,-3.36615 -0.49757,-1.10698 -1.05194,-2.19807 -1.6711,-3.27041 -0.61903,-1.07235 -1.28699,-2.10313 -1.99734,-3.08748 -0.70988,-0.98434 -1.46003,-1.92386 -2.252,-2.81735 a 2.0373337,2.0373337 0 0 0 -0.008,4.1e-4 c -0.79124,-0.889 -1.61655,-1.73849 -2.48277,-2.53867 a 2.0373337,2.0373337 0 0 0 -1.48806,-0.55695 z m -58.678888,2.52278 a 3.8798152,3.8798152 0 0 0 -3.183019,1.93365 3.8798152,3.8798152 0 0 0 1.424283,5.2998 3.8798152,3.8798152 0 0 0 5.2997,-1.41662 3.8798152,3.8798152 0 0 0 -1.424263,-5.2998 3.8798152,3.8798152 0 0 0 -2.116701,-0.51703 z m 71.315458,0 a 3.8798152,3.8798152 0 0 0 -1.84651,0.51581 3.8798152,3.8798152 0 0 0 -1.41644,5.29939 3.8798152,3.8798152 0 0 0 5.29972,1.41662 3.8798152,3.8798152 0 0 0 1.41644,-5.2998 3.8798152,3.8798152 0 0 0 -3.45359,-1.93364 z m -15.77981,26.41876 a 2.0373337,2.0373337 0 0 0 -1.89388,2.8251 l 2.8488,7.1458 -7.61536,1.1062 a 2.0380506,2.0380506 0 1 0 0.5809,4.0343 l 9.47742,-1.3767 3.33421,1.926 c -0.22416,0.3381 -0.42459,0.6995 -0.66048,1.0263 -0.62983,0.8735 -1.29575,1.7079 -1.99733,2.4987 -0.70192,0.7916 -1.4374,1.5441 -2.20424,2.2518 a 2.0373337,2.0373337 0 1 0 2.76126,2.9922 c 0.86603,-0.7998 1.69861,-1.6452 2.49071,-2.5383 0.79236,-0.8939 1.54225,-1.833 2.25198,-2.8169 0.71004,-0.9848 1.37821,-2.0152 1.99734,-3.0875 0.619,-1.0723 1.17353,-2.163 1.6711,-3.2708 0.49736,-1.1066 0.93539,-2.2335 1.31299,-3.3658 0.37406,-1.1298 0.69506,-2.2718 0.95489,-3.422 a 2.0373337,2.0373337 0 0 0 -1.96551,-2.5146 2.0373337,2.0373337 0 0 0 -2.00525,1.6154 c -0.22979,1.0174 -0.51787,2.0323 -0.85146,3.0399 -0.33405,1.001 -0.72155,1.9964 -1.16179,2.9762 -0.16444,0.3667 -0.3772,0.7195 -0.55704,1.0822 l -3.34218,-1.926 -3.54108,-8.8884 a 2.0373337,2.0373337 0 0 0 -1.88596,-1.3131 z m -39.540995,0 a 2.0373337,2.0373337 0 0 0 -1.830211,1.3049 l -3.541102,8.8966 -3.342197,1.926 c -0.180856,-0.3667 -0.391455,-0.722 -0.557025,-1.0903 -0.441332,-0.9819 -0.827547,-1.9809 -1.161824,-2.984 -0.334578,-1.0039 -0.615347,-2.0152 -0.843583,-3.0317 a 2.0373337,2.0373337 0 0 0 -2.068955,-1.6155 2.0373337,2.0373337 0 0 0 -1.909825,2.5065 c 0.258512,1.1519 0.577538,2.2971 0.954847,3.4298 0.377521,1.133 0.815708,2.2596 1.313012,3.3661 0.497569,1.107 1.059858,2.1981 1.679031,3.2704 0.619019,1.0724 1.279069,2.1028 1.9894,3.0875 0.709569,0.9836 1.466942,1.9235 2.259944,2.817 0.791396,0.889 1.624497,1.7385 2.490713,2.5386 a 2.0373337,2.0373337 0 1 0 2.761264,-2.9921 c -0.766197,-0.7077 -1.50649,-1.4594 -2.212197,-2.2518 l 0.0081,0 c -0.701311,-0.7904 -1.367114,-1.6253 -1.997337,-2.4988 -0.236388,-0.3259 -0.442281,-0.6877 -0.668427,-1.0267 l 3.342169,-1.9255 9.46946,1.3767 a 2.038743,2.038743 0 1 0 0.588869,-4.0347 l -7.623319,-1.1062 2.856757,-7.1459 a 2.0373337,2.0373337 0 0 0 -1.957572,-2.8169 z m -15.907146,14.6975 a 3.8798152,3.8798152 0 0 0 -1.846507,0.5158 3.8798152,3.8798152 0 0 0 -1.424402,5.2998 3.8798152,3.8798152 0 0 0 5.299707,1.4166 3.8798152,3.8798152 0 0 0 1.424411,-5.2998 3.8798152,3.8798152 0 0 0 -3.453567,-1.9336 z m 71.140421,0 a 3.8798152,3.8798152 0 0 0 -3.17501,1.934 3.8798152,3.8798152 0 0 0 1.41642,5.2994 3.8798152,3.8798152 0 0 0 5.29973,-1.4162 3.8798152,3.8798152 0 0 0 -1.41644,-5.2998 3.8798152,3.8798152 0 0 0 -2.12466,-0.517 z m -29.1246,0.3585 a 2.0373337,2.0373337 0 0 0 -1.54373,0.812 l -4.766547,6.0397 -4.76657,-6.0397 a 2.0373337,2.0373337 0 0 0 -1.583555,-0.7957 2.0373337,2.0373337 0 0 0 -1.615371,3.3181 l 5.928362,7.5121 8e-6,3.8596 c -0.404329,-0.041 -0.816966,-0.041 -1.217478,-0.065 -1.071078,-0.11 -2.13127,-0.2648 -3.167102,-0.4775 -1.036512,-0.2119 -2.053089,-0.4771 -3.047742,-0.788 a 2.0373337,2.0373337 0 0 0 -0.596777,-0.1018 2.0373337,2.0373337 0 0 0 -0.612728,3.9948 c 1.126773,0.3504 2.275963,0.6437 3.44561,0.8833 1.169903,0.2404 2.3579,0.4261 3.564985,0.5488 1.207627,0.1222 2.430227,0.1833 3.668423,0.1833 1.238249,4e-4 2.460852,-0.061 3.668422,-0.1833 1.20707,-0.1223 2.40315,-0.3097 3.57294,-0.5488 1.16521,-0.2404 2.31123,-0.5329 3.43769,-0.8833 a 2.0375248,2.0375248 0 0 0 -1.20956,-3.8914 c -0.99554,0.3097 -2.00844,0.5721 -3.0479,0.7872 -1.03604,0.2119 -2.08786,0.3708 -3.15916,0.4775 -0.40217,0.041 -0.81808,0.041 -1.22551,0.065 l 0,-3.8596 5.92837,-7.5117 a 2.0373337,2.0373337 0 0 0 -1.65517,-3.3343 z m -6.310326,20.2043 a 3.8798152,3.8798152 0 0 0 -3.875334,3.8754 3.8798152,3.8798152 0 0 0 3.875334,3.8832 3.8798152,3.8798152 0 0 0 3.883266,-3.8832 3.8798152,3.8798152 0 0 0 -3.883266,-3.8754 z"></path></g></svg>