<svg height='100px' width='100px'  fill="#ffffff" xmlns:dc="http://purl.org/dc/elements/1.1/" xmlns:cc="http://creativecommons.org/ns#" xmlns:rdf="http://www.w3.org/1999/02/22-rdf-syntax-ns#" xmlns:svg="http://www.w3.org/2000/svg" xmlns="http://www.w3.org/2000/svg" xmlns:sodipodi="http://sodipodi.sourceforge.net/DTD/sodipodi-0.dtd" xmlns:inkscape="http://www.inkscape.org/namespaces/inkscape" version="1.1" x="0px" y="0px" viewBox="0 0 100 100"><g transform="translate(0,-952.36218)"><path d="m 69.98204,964.36215 c 7.18447,0 13.00865,5.8203 13.00865,13 0,7.1797 -5.82418,13 -13.00865,13 -7.18448,0 -13.00865,-5.8203 -13.00865,-13 0,-7.1797 5.82417,-13 13.00865,-13 z m -64.44911,23.9375 c 0.82086,-0.041 1.7199,0.3125 2.4704,1.0625 l 12.07052,33.00005 12.88357,0 c -2.00133,0 -4.00266,-3 -4.00266,-6 0,-3 2.00133,-6.0001 4.00266,-6.0001 l 36.02395,0 0,-9.9999 c 0,-6.00005 8.00532,-11.00005 14.00932,-11.00005 6.00399,0 14.00931,5 14.00931,11.00005 l 0,40 -28.01863,0 0,-15.3125 c 3.66141,-1.987 7.153,-5.0316 9.78776,-7.6563 3.20255,-3.2003 6.22063,-6.7158 7.8177,-8.8438 0.44226,-0.5729 0.55074,-1.4042 0.25016,-2.0625 -0.30057,-0.6582 -0.99705,-1.1142 -1.71989,-1.1562 -0.66997,-0.046 -1.35396,0.2714 -1.75117,0.8124 -1.40493,1.8721 -4.39083,5.3567 -7.44244,8.4064 -2.80338,3.4979 -5.95077,5.9476 -10.22555,7.8125 l -13.72788,0 c 3.002,0 4.00266,0 4.00266,2 0,2 -1.00066,4 -4.00266,4 l 8.00532,0 c 3.002,0 4.00266,2 4.00266,4 0,2 -1.00066,4 -4.00266,4 l -52.03459,0 0,-8 8.00532,0 L 3,991.36215 c 0,-1.875 1.16483,-2.9941 2.53293,-3.0625 z" style="color:#000000;enable-background:accumulate;" fill="#ffffff" stroke="none" marker="none" visibility="visible" display="inline" overflow="visible"></path></g></svg>